<?xml version="1.0" encoding="UTF-8" standalone="no"?>
<!-- Created with Inkscape (http://www.inkscape.org/) -->

<svg
   xmlns:dc="http://purl.org/dc/elements/1.1/"
   xmlns:cc="http://creativecommons.org/ns#"
   xmlns:rdf="http://www.w3.org/1999/02/22-rdf-syntax-ns#"
   xmlns:svg="http://www.w3.org/2000/svg"
   xmlns="http://www.w3.org/2000/svg"
   xmlns:sodipodi="http://sodipodi.sourceforge.net/DTD/sodipodi-0.dtd"
   xmlns:inkscape="http://www.inkscape.org/namespaces/inkscape"
   width="41.23542mm"
   height="41.237919mm"
   viewBox="0 0 41.23542 41.23792"
   version="1.1"
   id="svg8"
   sodipodi:docname="Mercury.svg"
   inkscape:version="0.92.5 (2060ec1f9f, 2020-04-08)">
  <defs
     id="defs2">
	
	
	
	
	
	
	
	
	
	
	
	
	
	
	
	

	
	
	
	
	
	
	
	
	

	
	
	
	
	
	

	
	
	
	
	
	

	
	
	
	
	
	
	
	
	

	
	
	
	
	
	
	

	
	
	
	
	
	
	

	
	
	
	
	
	
	
	
	

	
	
	
	
	
	
	

	
	
	
	
	
	

	
	
	
	
	
	
</defs>
  <sodipodi:namedview
     id="base"
     pagecolor="#ffffff"
     bordercolor="#666666"
     borderopacity="1.0"
     inkscape:pageopacity="0.0"
     inkscape:pageshadow="2"
     inkscape:zoom="0.98994949"
     inkscape:cx="195.59165"
     inkscape:cy="129.55698"
     inkscape:document-units="mm"
     inkscape:current-layer="layer1"
     showgrid="false"
     inkscape:window-width="3072"
     inkscape:window-height="1883"
     inkscape:window-x="0"
     inkscape:window-y="0"
     inkscape:window-maximized="1"
     fit-margin-top="0"
     fit-margin-left="0"
     fit-margin-right="0"
     fit-margin-bottom="0" />
  <metadata
     id="metadata5">
    <rdf:RDF>
      <cc:Work
         rdf:about="">
        <dc:format>image/svg+xml</dc:format>
        <dc:type
           rdf:resource="http://purl.org/dc/dcmitype/StillImage" />
        <dc:title></dc:title>
      </cc:Work>
    </rdf:RDF>
  </metadata>
  <g
     inkscape:label="Layer 1"
     inkscape:groupmode="layer"
     id="layer1"
     transform="translate(229.70706,191.3246)">
    <g
       id="g4507"
       transform="translate(-57.81427,-1.2474877)">
      <path
         style="fill:#464646;stroke-width:0.26458332"
         inkscape:connector-curvature="0"
         class="st0"
         d="m -145.22189,-170.47879 c -0.62627,-0.34554 -1.52056,-0.57758 -2.22329,-0.34342 -0.27676,0.0923 -0.48022,0.26722 -0.52652,0.56356 -0.002,0.0119 -0.004,0.0241 -0.006,0.036 -0.0712,0.43736 -0.18759,0.82841 -0.65352,1.00833 -0.33153,0.12806 -0.69745,0.0778 -1.03505,0.17753 -0.41752,0.12304 -0.72972,0.6059 -0.72364,1.02579 0.008,0.51938 -0.14102,1.18322 0.0923,1.66661 0.19526,0.40455 0.58367,0.51303 0.9906,0.57918 0.3339,0.0542 0.77761,-0.0333 1.05913,0.20558 0.26802,0.22754 0.39105,0.72231 0.60483,1.01467 0.22993,0.31433 0.52705,0.59029 0.88848,0.73555 0.60721,0.24368 1.35678,0.0217 1.72878,-0.51409 0.31062,-0.44688 0.26115,-1.05331 0.24395,-1.56898 -0.0365,-1.10066 0,-1.68751 0.51356,-2.34791 0.51355,-0.66066 0.1098,-1.65126 -0.95383,-2.23838 z"
         id="path3994" />
      <path
         style="fill:#464646;stroke-width:0.26458332"
         inkscape:connector-curvature="0"
         class="st0"
         d="m -130.65737,-169.45908 c 0,-2.45983 -0.43259,-4.81806 -1.22264,-7.00511 5.3e-4,0 0.001,0 0.002,2.7e-4 -0.004,-0.0106 -0.008,-0.0212 -0.0122,-0.0317 -0.0315,-0.0865 -0.0659,-0.17145 -0.0984,-0.25744 -0.0762,-0.20162 -0.15478,-0.40244 -0.23706,-0.60114 -0.0431,-0.10371 -0.0879,-0.20664 -0.13256,-0.30982 -0.0804,-0.18548 -0.16378,-0.36936 -0.2495,-0.55166 -0.045,-0.0955 -0.0892,-0.19129 -0.13547,-0.28602 -0.11007,-0.22542 -0.22463,-0.4482 -0.34263,-0.66886 -0.0243,-0.0452 -0.0468,-0.0915 -0.0714,-0.13679 -0.14341,-0.26353 -0.29342,-0.52282 -0.44794,-0.7792 -0.0455,-0.0757 -0.0934,-0.14975 -0.13997,-0.2249 -0.11456,-0.18441 -0.23124,-0.3675 -0.35136,-0.54795 -0.0566,-0.0852 -0.11377,-0.1696 -0.17145,-0.25373 -0.12277,-0.1786 -0.24845,-0.35507 -0.3765,-0.5297 -0.0521,-0.0709 -0.10293,-0.14261 -0.15584,-0.21299 -0.18045,-0.23945 -0.36513,-0.47598 -0.55563,-0.70723 -0.0214,-0.0262 -0.0445,-0.0513 -0.0661,-0.0773 -0.17065,-0.20479 -0.34501,-0.40613 -0.52334,-0.60404 -0.0643,-0.0717 -0.13018,-0.14182 -0.19579,-0.21246 -0.14235,-0.15399 -0.28708,-0.30586 -0.43418,-0.45535 -0.0712,-0.0722 -0.14235,-0.14473 -0.21432,-0.2159 -0.16245,-0.16034 -0.32808,-0.31776 -0.49583,-0.47281 -0.054,-0.05 -0.10689,-0.10134 -0.16139,-0.15081 -0.22013,-0.19923 -0.44477,-0.3937 -0.67337,-0.58341 -0.0603,-0.05 -0.1225,-0.0979 -0.18335,-0.14711 -0.1733,-0.14049 -0.34819,-0.2786 -0.52599,-0.41354 -0.0841,-0.0638 -0.16907,-0.12621 -0.254,-0.18865 -0.1651,-0.12118 -0.33206,-0.23971 -0.50086,-0.35613 -0.0836,-0.0577 -0.16695,-0.11615 -0.25162,-0.17251 -0.21669,-0.14472 -0.4363,-0.28548 -0.65855,-0.42227 -0.0344,-0.0212 -0.068,-0.0439 -0.10265,-0.0648 -0.25374,-0.15373 -0.51171,-0.3011 -0.77232,-0.44398 -0.0863,-0.0474 -0.17383,-0.0923 -0.26088,-0.13837 -0.18309,-0.0971 -0.36751,-0.19209 -0.55404,-0.28364 -0.0984,-0.0484 -0.19711,-0.0963 -0.29633,-0.14314 -0.1905,-0.09 -0.38312,-0.17647 -0.57706,-0.26087 -0.0876,-0.0381 -0.17436,-0.0778 -0.26247,-0.11457 -0.27569,-0.11536 -0.55377,-0.22569 -0.83529,-0.32941 -0.0606,-0.0222 -0.12223,-0.0418 -0.18309,-0.0635 -0.22754,-0.0812 -0.45667,-0.15927 -0.68765,-0.23283 -0.10266,-0.0325 -0.20611,-0.0632 -0.3093,-0.0942 -0.19791,-0.0595 -0.39687,-0.11589 -0.59716,-0.1696 -0.10584,-0.0283 -0.21114,-0.0566 -0.3175,-0.0833 -0.2294,-0.0574 -0.46038,-0.11007 -0.69268,-0.15981 -0.0725,-0.0156 -0.1442,-0.0331 -0.21696,-0.0479 -0.30057,-0.0608 -0.60378,-0.11456 -0.90911,-0.16245 -0.0892,-0.014 -0.17912,-0.0246 -0.26855,-0.0376 -0.22384,-0.032 -0.44873,-0.0611 -0.67495,-0.0857 -0.11139,-0.0122 -0.22305,-0.023 -0.3347,-0.0333 -0.21696,-0.0201 -0.43498,-0.0362 -0.65352,-0.0497 -0.10478,-0.006 -0.20929,-0.014 -0.31433,-0.0188 -0.3048,-0.014 -0.61092,-0.0228 -0.91916,-0.0233 -0.0135,0 -0.0267,-0.001 -0.0402,-0.001 -0.01,0 -0.0193,8e-4 -0.0291,8e-4 -0.30348,5.3e-4 -0.60457,0.01 -0.90461,0.0228 -0.0876,0.004 -0.17489,0.008 -0.26247,0.0135 -0.27728,0.0159 -0.55324,0.0362 -0.82735,0.063 -0.0349,0.003 -0.0701,0.006 -0.10477,0.009 -0.29872,0.0307 -0.59479,0.0698 -0.88953,0.11298 -0.0894,0.0132 -0.17833,0.0272 -0.2675,0.0415 -0.24818,0.0397 -0.49503,0.0836 -0.7403,0.13229 -0.0553,0.0109 -0.11086,0.0201 -0.16589,0.0315 -0.2839,0.0587 -0.56515,0.12461 -0.84455,0.19499 -0.0905,0.0228 -0.18045,0.0468 -0.27067,0.0707 -0.22596,0.0601 -0.45032,0.12356 -0.6731,0.19103 -0.0667,0.0201 -0.13388,0.0386 -0.20029,0.0595 -0.2712,0.0852 -0.53975,0.17674 -0.80592,0.27278 -0.0849,0.0304 -0.16881,0.0624 -0.25321,0.0942 -0.21749,0.0815 -0.43286,0.16643 -0.64664,0.25506 -0.0632,0.0262 -0.127,0.0511 -0.18971,0.0778 -0.26617,0.11324 -0.5289,0.23283 -0.78925,0.35666 -0.0638,0.0304 -0.12674,0.0619 -0.18997,0.0929 -0.2323,0.11377 -0.46223,0.23124 -0.68977,0.35322 -0.0386,0.0206 -0.0778,0.0405 -0.11615,0.0614 -0.22728,0.12382 -0.4527,0.25056 -0.67469,0.38232 -7.9e-4,0.002 -0.002,0.005 -0.003,0.007 -6.03515,3.59675 -10.07984,10.1854 -10.07984,17.721 0,9.13421 5.94202,16.87592 14.16976,19.58366 0.001,0.002 0.003,0.003 0.004,0.005 l 0.004,0.004 h 0.004 c 0.0503,0.0164 0.1016,0.0304 0.15214,0.0466 0.11933,0.0381 0.23918,0.0743 0.3593,0.11033 0.18601,0.0558 0.37307,0.10874 0.56119,0.15928 0.1098,0.0296 0.21907,0.0595 0.32967,0.0873 0.254,0.0638 0.50958,0.12277 0.76729,0.17701 0.0436,0.009 0.0868,0.0201 0.13044,0.0291 0.31247,0.0638 0.62785,0.11933 0.94509,0.1688 0.0619,0.01 0.12435,0.0172 0.18653,0.0265 0.26088,0.0381 0.52335,0.0717 0.78714,0.10001 0.0754,0.008 0.15107,0.0156 0.22674,0.0228 0.272,0.0262 0.54531,0.0468 0.82048,0.0624 0.0529,0.003 0.1053,0.007 0.15822,0.01 0.33549,0.0164 0.67257,0.0272 1.01229,0.0272 0.33893,0 0.67496,-0.0111 1.00992,-0.0272 0.0341,-0.002 0.068,-0.003 0.10213,-0.005 0.66886,-0.0357 1.329,-0.10292 1.97961,-0.20081 0.0328,-0.005 0.0656,-0.0101 0.0984,-0.0151 0.64929,-0.1008 1.28853,-0.23177 1.91612,-0.39184 0.0323,-0.008 0.0643,-0.0167 0.0966,-0.0249 0.62547,-0.16272 1.23904,-0.35375 1.83991,-0.57203 0.0328,-0.0119 0.0653,-0.0241 0.0979,-0.036 0.59796,-0.22092 1.18269,-0.46831 1.75313,-0.74162 0.032,-0.0154 0.064,-0.031 0.096,-0.0466 0.56753,-0.27543 1.12025,-0.57573 1.65735,-0.90038 0.032,-0.0193 0.0638,-0.0389 0.0958,-0.0585 0.53366,-0.3265 1.05119,-0.67601 1.55125,-1.04828 0.031,-0.023 0.0616,-0.0463 0.0923,-0.0696 0.49715,-0.37438 0.97711,-0.7702 1.43775,-1.18692 0.0291,-0.0262 0.0577,-0.0526 0.0865,-0.0791 0.45825,-0.4191 0.89746,-0.85831 1.3163,-1.31683 0.0265,-0.0288 0.0524,-0.0582 0.0788,-0.0873 0.20559,-0.22754 0.40693,-0.45852 0.6022,-0.69506 5.2e-4,-7.9e-4 10e-4,-10e-4 0.002,-0.002 0.20002,-0.24236 0.3937,-0.49001 0.58261,-0.74136 0.0228,-0.0304 0.0452,-0.0608 0.0677,-0.0915 0.18151,-0.24421 0.35851,-0.49186 0.52943,-0.74427 0.003,-0.004 0.006,-0.008 0.009,-0.0127 0.17621,-0.26088 0.34581,-0.52678 0.51038,-0.79587 0.0191,-0.0312 0.0376,-0.0627 0.0566,-0.0942 0.063,-0.10451 0.12726,-0.20796 0.18838,-0.31353 -0.002,-0.001 -0.005,-0.001 -0.007,-0.002 1.75815,-3.03477 2.76992,-6.55716 2.76992,-10.31795 z m -4.68736,10.63651 c -0.20452,0.11483 -0.38417,0.24474 -0.51699,0.37862 -0.61119,0.61542 -1.07262,1.67137 -2.00819,1.8378 -0.62362,0.11218 -1.07262,-0.39503 -1.47611,-0.78581 -0.59875,-0.58209 -1.05622,-0.34105 -1.77959,-0.24951 -0.64029,0.0791 -1.26391,-0.0415 -1.81689,-0.38258 -1.19327,-0.73608 -2.04153,-1.27635 -3.48853,-0.28284 -0.79825,0.54874 -1.48008,0.81915 -1.95422,1.65073 -0.20796,0.36169 -0.54874,1.5883 -1.01044,1.61317 -0.16642,0.0124 -0.33258,-0.054 -0.499,-0.0749 -0.38259,-0.054 -0.76095,0.11218 -1.08109,0.32014 -0.46567,0.30772 -0.92313,0.83979 -1.52162,0.79825 -0.30771,-0.0249 -0.59452,-0.14552 -0.88556,-0.24527 -1.8378,-0.65696 -4.24921,0.51568 -5.07259,2.24102 -0.0434,0.0902 -0.0712,0.18072 -0.0902,0.27067 -4.30133,-1.77059 -7.81976,-5.062 -9.88509,-9.20194 0.39449,0.11271 0.80803,0.15161 1.21496,0.0971 0.51171,-0.0685 0.91811,-0.18812 1.44463,-0.0971 0.56488,0.0976 1.16311,0.32385 1.73037,0.11324 0.45535,-0.16907 0.70485,-0.55218 1.23878,-0.49186 0.29792,0.0336 0.57653,0.15875 0.85619,0.26697 0.78873,0.3048 1.62587,0.48365 2.47015,0.52731 0.37016,0.019 0.74798,0.0116 1.1012,-0.10107 0.57415,-0.18283 0.89403,-0.61569 1.016,-1.19036 0.1479,-0.69665 0.14949,-1.48564 -0.20717,-2.12302 -0.47175,-0.84296 -1.34964,-0.80354 -2.03094,-1.35996 -0.49583,-0.40481 -0.67231,-1.08135 -1.17316,-1.47796 -0.56859,-0.45005 -1.31366,-0.449 -2.00105,-0.38841 -0.99959,0.0881 -1.81398,-0.46064 -2.69742,0.26988 -0.75936,0.62812 -1.36631,1.55707 -2.34448,1.524 -0.20161,-0.007 -0.41936,-0.0545 -0.65696,-0.15399 -0.21034,-0.0881 -0.40269,-0.21352 -0.6088,-0.31036 -0.40429,-0.1897 -0.7329,-0.11165 -0.9914,0.10663 -0.23997,-1.20888 -0.3683,-2.45718 -0.3683,-3.73539 0,-6.10817 2.87629,-11.55382 7.3414,-15.06537 -0.50986,1.20835 -0.31301,2.65271 0.56647,3.6613 0.58632,0.67787 1.06442,0.82736 1.92087,0.6612 0.6694,-0.12885 1.53432,-0.49477 2.21615,-0.28681 0.59452,0.17886 1.16417,0.15372 1.70895,0.499 0.33681,0.21617 0.64876,0.47811 1.01441,0.6485 0.69453,0.32438 1.8378,0.20796 2.04576,1.14353 0.0749,0.34104 0.0124,0.69426 -0.05,1.03531 -0.27437,1.49675 0.55298,2.93132 2.0582,3.35545 1.03531,0.29527 1.92511,-0.10398 2.83977,-0.54875 0.65696,-0.32015 1.55099,-0.74851 1.73381,-1.53432 0.19553,-0.85645 1.46368,-1.88357 2.44475,-1.59253 0.57785,0.17463 0.96044,0.63209 1.55496,0.74004 0.32438,0.0582 0.6694,0.0791 0.95224,0.24951 0.32014,0.19129 0.5281,0.55298 0.86492,0.7067 0.30771,0.14129 0.67363,0.0915 0.97711,-0.054 1.56342,-0.74427 1.82932,-2.97709 1.54252,-4.50294 -0.1995,-1.07262 0.88556,-1.50098 1.74625,-1.14353 0.32305,0.13414 0.75115,0.37809 1.11521,0.6821 0.25533,0.34634 0.49716,0.70326 0.7292,1.0668 0.002,0.0103 0.005,0.0204 0.006,0.0304 0.11218,0.96891 0.41169,2.0873 1.28481,2.66938 0.0545,0.0368 0.12251,0.0738 0.19632,0.11087 0.97526,2.29605 1.51554,4.81991 1.51554,7.46786 2.6e-4,3.93303 -1.19195,7.59169 -3.23189,10.63704 z"
         id="path3996" />
    </g>
  </g>
  <style
     id="style3958"
     type="text/css">
	.st0{fill:#464646;}
</style>
</svg>
