<?xml version="1.0" encoding="UTF-8" standalone="no"?>
<!-- Created with Inkscape (http://www.inkscape.org/) -->

<svg
   xmlns:dc="http://purl.org/dc/elements/1.1/"
   xmlns:cc="http://creativecommons.org/ns#"
   xmlns:rdf="http://www.w3.org/1999/02/22-rdf-syntax-ns#"
   xmlns:svg="http://www.w3.org/2000/svg"
   xmlns="http://www.w3.org/2000/svg"
   xmlns:sodipodi="http://sodipodi.sourceforge.net/DTD/sodipodi-0.dtd"
   xmlns:inkscape="http://www.inkscape.org/namespaces/inkscape"
   width="41.23584mm"
   height="41.23447mm"
   viewBox="0 0 41.235839 41.234471"
   version="1.1"
   id="svg8"
   sodipodi:docname="Pluto.svg"
   inkscape:version="0.92.5 (2060ec1f9f, 2020-04-08)">
  <defs
     id="defs2">
	
	
	
	
	
	
	
	
	
	
	
	
	
	
	
	

	
	
	
	
	
	
	
	
	

	
	
	
	
	
	

	
	
	
	
	
	

	
	
	
	
	
	
	
	
	

	
	
	
	
	
	
	

	
	
	
	
	
	
	

	
	
	
	
	
	
	
	
	

	
	
	
	
	
	
	

	
	
	
	
	
	

	
	
	
	
	
	
</defs>
  <sodipodi:namedview
     id="base"
     pagecolor="#ffffff"
     bordercolor="#666666"
     borderopacity="1.0"
     inkscape:pageopacity="0.0"
     inkscape:pageshadow="2"
     inkscape:zoom="0.98994949"
     inkscape:cx="501.6648"
     inkscape:cy="-207.55094"
     inkscape:document-units="mm"
     inkscape:current-layer="layer1"
     showgrid="false"
     inkscape:window-width="3072"
     inkscape:window-height="1883"
     inkscape:window-x="0"
     inkscape:window-y="0"
     inkscape:window-maximized="1"
     fit-margin-top="0"
     fit-margin-left="0"
     fit-margin-right="0"
     fit-margin-bottom="0" />
  <metadata
     id="metadata5">
    <rdf:RDF>
      <cc:Work
         rdf:about="">
        <dc:format>image/svg+xml</dc:format>
        <dc:type
           rdf:resource="http://purl.org/dc/dcmitype/StillImage" />
        <dc:title></dc:title>
      </cc:Work>
    </rdf:RDF>
  </metadata>
  <g
     inkscape:label="Layer 1"
     inkscape:groupmode="layer"
     id="layer1"
     transform="translate(310.68891,280.51429)">
    <path
       id="path4028"
       d="m -218.87598,-393.30484 c 0,-2.08836 -0.31327,-4.1029 -0.89033,-6.00261 -0.007,-0.0249 -0.0135,-0.0556 -0.0209,-0.0791 -0.004,-0.0119 -0.008,-0.0235 -0.0116,-0.0354 -0.009,-0.0281 -0.0188,-0.0556 -0.0275,-0.0836 -0.0855,-0.27146 -0.177,-0.54107 -0.27383,-0.80883 -0.0257,-0.0709 -0.0526,-0.14129 -0.0791,-0.21193 -0.0862,-0.23098 -0.17648,-0.46011 -0.2712,-0.68792 -0.0283,-0.068 -0.0564,-0.13599 -0.0855,-0.20373 -0.1016,-0.23706 -0.20796,-0.47175 -0.31856,-0.70458 -0.0254,-0.0537 -0.0495,-0.10822 -0.0754,-0.16166 -0.013,-0.027 -0.0249,-0.0545 -0.0381,-0.0815 -0.003,-0.006 -0.008,-0.01 -0.0114,-0.0154 -2.50032,-5.09058 -7.03634,-8.99769 -12.54787,-10.66165 -5.3e-4,-0.002 -8e-4,-0.003 -0.002,-0.004 -0.25691,-0.0775 -0.51647,-0.14923 -0.77761,-0.21696 -0.0487,-0.0127 -0.0982,-0.0236 -0.14711,-0.0357 -0.25321,-0.0638 -0.50826,-0.12224 -0.76517,-0.17648 -0.0786,-0.0167 -0.15716,-0.0328 -0.23601,-0.0484 -0.27411,-0.0545 -0.5498,-0.10424 -0.82762,-0.1479 -0.0307,-0.005 -0.0611,-0.0106 -0.0921,-0.0153 -0.31829,-0.0484 -0.63897,-0.0886 -0.96202,-0.12224 -0.0511,-0.005 -0.10213,-0.009 -0.1532,-0.0143 -0.2786,-0.027 -0.5588,-0.0481 -0.84031,-0.064 -0.0579,-0.003 -0.11562,-0.007 -0.17357,-0.01 -0.32891,-0.0156 -0.65911,-0.0265 -0.99196,-0.0265 -0.34343,0 -0.68394,0.0106 -1.0234,0.0273 -0.0529,0.003 -0.10504,0.007 -0.1577,0.01 -0.27887,0.0159 -0.55615,0.0365 -0.83158,0.0632 -0.0818,0.008 -0.16298,0.0175 -0.24421,0.0262 -0.2495,0.0273 -0.49768,0.0585 -0.7448,0.0947 -0.0849,0.0124 -0.1696,0.0249 -0.254,0.0384 -0.25295,0.0402 -0.50404,0.0855 -0.7538,0.13467 -0.0693,0.0138 -0.13918,0.0262 -0.20823,0.0405 -0.30639,0.0638 -0.61066,0.13335 -0.91175,0.21061 -0.008,0.002 -0.0172,0.004 -0.0257,0.006 -0.32676,0.0841 -0.65035,0.17594 -0.9705,0.27569 -0.008,0.003 -0.0169,0.006 -0.0254,0.008 -0.29421,0.0918 -0.58499,0.19103 -0.87339,0.29554 -0.0685,0.0249 -0.13626,0.0516 -0.20452,0.077 -0.22966,0.086 -0.45773,0.17542 -0.68342,0.26935 -0.0804,0.0336 -0.1606,0.0677 -0.2405,0.10239 -0.21617,0.0931 -0.43048,0.19024 -0.64268,0.29051 -0.0765,0.0362 -0.15319,0.072 -0.22913,0.10901 -0.22912,0.11192 -0.45561,0.22834 -0.67997,0.34819 -0.0524,0.0281 -0.10557,0.0545 -0.15743,0.0828 -0.55854,0.30506 -1.10146,0.635 -1.62745,0.98848 -0.0526,0.0355 -0.10398,0.0728 -0.15637,0.10875 -0.204,0.13996 -0.40587,0.28284 -0.60458,0.42994 -0.0722,0.0534 -0.1434,0.10822 -0.2151,0.16272 -0.17833,0.13573 -0.35454,0.27385 -0.52837,0.41513 -0.0733,0.0595 -0.14658,0.1196 -0.21908,0.18019 -0.17489,0.14631 -0.34713,0.29606 -0.51726,0.44794 -0.0627,0.0558 -0.12594,0.11086 -0.18785,0.16774 -0.20188,0.18494 -0.39979,0.37386 -0.59426,0.56647 -0.0254,0.0251 -0.0516,0.0492 -0.077,0.0743 -0.22569,0.22622 -0.44635,0.45747 -0.66146,0.69374 -0.0206,0.0228 -0.0402,0.0466 -0.0608,0.0693 -0.18626,0.20664 -0.36856,0.41698 -0.54663,0.63103 -0.0535,0.0643 -0.10504,0.12991 -0.15769,0.19473 -0.14393,0.17754 -0.28575,0.35693 -0.42386,0.53923 -0.0574,0.0757 -0.11377,0.15213 -0.17012,0.2286 -0.1323,0.17965 -0.26142,0.36168 -0.38815,0.54557 -0.0519,0.0754 -0.10398,0.15028 -0.15452,0.22622 -0.13652,0.20425 -0.26855,0.41116 -0.39793,0.62044 -0.0344,0.0558 -0.0704,0.11033 -0.10425,0.16643 -0.32887,0.54371 -0.63288,1.10384 -0.91148,1.67878 -0.0241,0.0497 -0.0463,0.10027 -0.0699,0.15028 -0.11166,0.23522 -0.21935,0.47255 -0.32227,0.71252 -0.0318,0.0741 -0.0619,0.1487 -0.0929,0.22305 -0.0926,0.22278 -0.18124,0.44741 -0.26591,0.67416 -0.0288,0.077 -0.0574,0.15425 -0.0855,0.23177 -0.086,0.23892 -0.16721,0.47995 -0.24447,0.72284 -0.0196,0.0616 -0.0402,0.1225 -0.0593,0.18442 -0.10213,0.33178 -0.19897,0.66569 -0.28469,1.00436 v 0.0124 c 0,10e-4 2.6e-4,0.002 2.6e-4,0.003 -0.40746,1.61739 -0.62627,3.30967 -0.62627,5.05354 0,9.88324 6.95537,18.13798 16.23722,20.14696 0.003,0.001 0.006,0.005 0.01,0.005 0.0243,0.005 0.0489,0.009 0.0733,0.0138 0.25267,0.0534 0.508,0.0998 0.76411,0.14393 0.0934,0.0161 0.18574,0.0349 0.27967,0.05 0.26141,0.0415 0.5252,0.0746 0.78951,0.1061 0.0947,0.0114 0.18839,0.0259 0.28364,0.036 0.26246,0.0275 0.52731,0.0463 0.79269,0.064 0.0987,0.007 0.19632,0.0172 0.29527,0.0225 0.33444,0.0175 0.67152,0.0259 1.00992,0.0273 0.0275,0 0.0545,0.002 0.082,0.002 0.004,0 0.008,-2.6e-4 0.0122,-2.6e-4 0.39767,-2.6e-4 0.79216,-0.0143 1.18427,-0.0368 0.11536,-0.007 0.2294,-0.0177 0.34449,-0.0262 0.28707,-0.0212 0.57256,-0.0468 0.85619,-0.0799 0.12118,-0.014 0.24157,-0.0299 0.36195,-0.046 0.28708,-0.0384 0.57177,-0.0828 0.85514,-0.13308 0.10292,-0.0183 0.20637,-0.0355 0.30876,-0.055 0.33682,-0.0648 0.67072,-0.13785 1.00145,-0.21881 0.0352,-0.009 0.0714,-0.0146 0.10689,-0.0233 2.6e-4,-5.3e-4 2.6e-4,-0.001 5.3e-4,-0.001 4.27964,-1.07315 8.0272,-3.48351 10.77516,-6.7617 0.002,-0.001 0.005,-5.3e-4 0.006,-0.002 0.0196,-0.0233 0.0378,-0.0476 0.0574,-0.0709 0.0468,-0.0564 0.0918,-0.11403 0.13811,-0.17093 0.1405,-0.17304 0.27834,-0.34844 0.41328,-0.52598 0.0579,-0.0765 0.11615,-0.15266 0.1733,-0.23019 0.15399,-0.20876 0.3048,-0.4199 0.45112,-0.63421 0.0376,-0.055 0.0744,-0.11032 0.11139,-0.16562 0.1389,-0.20771 0.27358,-0.41858 0.40481,-0.63157 0.055,-0.0892 0.10848,-0.17886 0.16219,-0.26881 0.10504,-0.17621 0.20717,-0.35428 0.30692,-0.53366 0.0458,-0.082 0.0926,-0.16352 0.13705,-0.24634 0.13229,-0.24606 0.25982,-0.49476 0.38232,-0.74639 0.0413,-0.0847 0.0799,-0.17065 0.11986,-0.25585 0.0868,-0.18494 0.17119,-0.37095 0.25268,-0.5588 0.0437,-0.10053 0.087,-0.20108 0.12911,-0.30241 0.0889,-0.21459 0.1741,-0.43127 0.25612,-0.64929 0.0368,-0.0984 0.0733,-0.19685 0.10874,-0.29608 0.0794,-0.22172 0.15505,-0.44528 0.22675,-0.67044 0.0376,-0.11748 0.073,-0.23602 0.10875,-0.35428 0.0511,-0.17093 0.0995,-0.3429 0.14631,-0.51567 0.0331,-0.12172 0.0669,-0.24289 0.0979,-0.36539 0.064,-0.25586 0.12382,-0.5133 0.17833,-0.77285 0.0302,-0.14394 0.0561,-0.28946 0.0833,-0.43446 0.0267,-0.1418 0.0524,-0.28389 0.0762,-0.4265 0.0272,-0.16324 0.0529,-0.32675 0.0762,-0.49107 0.004,-0.0283 0.009,-0.0564 0.0132,-0.0849 -8e-4,-8e-4 -0.001,-8e-4 -0.002,-0.002 0.12674,-0.92498 0.19765,-1.86849 0.19765,-2.82892 z m -24.81051,18.56845 c -0.0127,0.0233 -0.0291,0.0638 -0.0479,0.11563 -8.53176,-1.93569 -14.92223,-9.57501 -14.92223,-18.68408 0,-1.17872 0.1127,-2.33072 0.31723,-3.45123 0.19738,0.16246 0.38814,0.31406 0.54134,0.45588 0.69294,0.64188 0.4654,1.18136 0.61065,2.11984 0.10398,0.67072 0.71941,1.6039 0.62521,2.27356 -0.0833,0.59346 -0.28178,1.10094 0.0595,1.65683 0.27835,0.45349 0.78264,0.77046 1.20784,1.0414 0.52783,0.33602 1.09855,0.78422 1.75683,0.77628 0.65749,-0.008 1.26311,-0.35904 1.92114,-0.36671 0.77973,-0.009 1.97353,0.12621 2.31721,0.9652 0.31618,0.78184 0.83371,2.54397 1.34488,2.95989 0.51567,0.41566 1.14036,1.13771 1.18613,2.36009 0.0497,1.22237 -0.26061,2.5818 1.72429,3.85207 0.91705,0.58711 0.91255,1.41023 1.21073,2.3114 0.24368,0.73527 0.5051,0.95594 0.14711,1.61395 z m 23.0124,-14.97277 c -0.56356,0.35481 -1.03637,0.80407 -1.16786,1.47664 -0.0492,0.25189 -0.0487,0.51488 -0.1331,0.75724 -0.27992,0.8038 -1.4687,0.75618 -2.1127,0.87022 -0.27252,0.0481 -0.54212,0.17012 -0.71464,0.38655 -0.26404,0.331 -0.25769,0.78846 -0.38232,1.17634 -0.11007,0.3429 -0.27384,0.67336 -0.41116,1.00621 -0.41011,0.99377 -0.11139,2.05528 0.55748,2.87205 0.0209,0.0257 0.0937,0.0995 0.19289,0.19579 -2.39052,2.83396 -5.58563,4.96544 -9.23053,6.04176 0.14049,-0.61674 0.32121,-1.21655 0.66225,-1.60708 0.53022,-0.60695 1.31895,-1.02155 1.7243,-1.79757 0.28575,-0.54743 0.3712,-1.19936 0.5998,-1.77165 0.006,-0.0161 0.0124,-0.032 0.0183,-0.0482 0.22463,-0.61039 0.10134,-1.26444 -0.35243,-1.74149 -0.53604,-0.56356 -1.30915,-1.5576 -2.09999,-1.29381 -0.23601,0.0789 -0.4662,0.21061 -0.71464,0.19553 -0.35137,-0.0214 -0.61013,-0.32226 -0.84164,-0.58738 -0.39476,-0.4527 -0.88503,-0.51011 -1.44833,-0.43524 -0.70723,0.0939 -1.55998,0.63924 -2.26483,0.47043 -0.18204,-0.0437 -0.36698,-0.10133 -0.50906,-0.22278 -0.45773,-0.39184 -1.01177,-0.65087 -1.46129,-1.08347 -1.1401,-1.09696 -2.12329,-1.73328 -3.59384,-1.40202 -0.96758,0.21801 -2.27621,0.15055 -3.2176,-0.22437 -0.85646,-0.34105 -0.67231,-1.38271 -0.96731,-2.35982 -0.1868,-0.61859 -0.7509,-1.07632 -1.25255,-1.44145 -0.33495,-0.24368 -0.69797,-0.5289 -1.08188,-0.69082 -0.30638,-0.12939 -0.64002,-0.15267 -0.73342,-0.54452 -0.16113,-0.67389 0.69295,-0.85592 1.08876,-1.16469 0.40614,-0.31671 0.67416,-0.62204 0.4572,-1.12448 -0.19949,-0.46196 -0.4781,-0.96361 -0.92684,-1.22026 -0.46857,-0.26776 -0.89402,-0.13758 -1.38906,-0.19606 -0.63606,-0.0749 -0.85486,-1.10516 -0.95461,-2.00713 -0.0955,-0.90646 1.59093,-2.47067 2.66779,-2.00501 1.07288,0.46567 1.66317,1.51765 2.59027,1.51765 0.93134,0 1.10172,-0.34501 2.39898,-0.34501 1.29301,0 0.65696,0.88159 1.29301,1.73804 0.63606,0.85646 1.00198,1.07686 2.07884,0.95224 1.07685,-0.12065 0.68606,-0.90223 0.24526,-1.31816 -0.44079,-0.41566 -0.7567,-0.93133 -0.70273,-1.85869 0.054,-0.93134 1.14353,-2.12884 1.80446,-2.74003 0.46249,-0.42757 1.15782,-0.40852 1.74546,-0.40931 0.35877,-5.3e-4 1.57691,-0.23892 1.81557,0.0672 0.0648,0.0833 0.0783,0.19393 0.0995,0.29739 0.127,0.61939 0.99509,0.71093 1.57268,0.91202 0.47599,0.16562 1.78991,0.91863 2.05819,0.26775 0.23178,-0.5625 -0.26723,-1.27211 -0.72945,-1.5486 -0.44106,-0.26379 -0.99272,-0.23522 -1.42743,-0.51779 -0.80248,-0.52176 -0.29792,-3.10912 0.68527,-3.27634 0.67469,-0.11483 2.07963,0.59532 2.599,0.0434 0.39794,-0.42333 -0.15134,-1.32053 -0.38073,-1.7309 -0.28575,-0.51117 -0.68448,-0.91017 -1.21497,-1.16575 -0.69903,-0.33655 -1.62772,-0.57971 -2.39712,-0.36301 -0.78317,0.22066 -0.76571,0.9689 -1.50151,1.32477 -0.78211,0.37835 -1.61211,0.68871 -2.48391,0.76464 -0.96758,0.0844 -2.03253,-1.34461 -2.1799,-2.20821 -0.12409,-0.7284 0.62732,-1.44965 0.94615,-2.03676 0.33946,-0.62495 0.77946,-0.42836 1.37874,-0.37439 0.45191,0.0408 0.65299,0.0818 0.95303,-0.24606 0.29395,-0.32173 0.56488,-0.63156 0.92922,-0.88053 0.0352,-0.0241 0.0736,-0.045 0.11006,-0.068 0.84005,0.0484 1.66502,0.15293 2.4728,0.30665 0.0889,0.14129 0.16642,0.29184 0.2458,0.43841 0.20822,0.38471 0.4818,0.7964 0.93953,0.89006 0.65088,0.13071 1.20015,-0.0783 1.38298,-0.65034 4.65217,1.58273 8.50556,4.90405 10.78045,9.18951 -0.28099,0.12726 -0.51065,0.26749 -0.59479,0.36591 -0.37359,0.43604 -0.60166,1.6219 -0.21299,2.10873 0.19632,0.24607 0.45932,0.43895 0.61754,0.71094 0.24262,0.41751 -0.0204,0.79216 -0.16483,1.18322 -0.15399,0.41645 -0.19553,0.85777 -0.0746,1.2909 0.26511,0.95091 1.20703,1.50019 2.13731,1.39462 0.15318,-0.0175 0.2921,0.046 0.43258,0.0979 0.0556,0.59346 0.0873,1.19354 0.0873,1.80129 7.9e-4,1.22872 -0.12012,2.42966 -0.3421,3.59515 z"
       class="st0"
       inkscape:connector-curvature="0"
       style="fill:#464646;stroke-width:0.26458332" />
    <g
       transform="translate(-199.55553,-223.84734)"
       id="g4516">
      <path
         style="fill:#464646;stroke-width:0.26458332"
         inkscape:connector-curvature="0"
         class="st0"
         d="m -130.65737,-103.52068 c 0,-8.67648 -5.36205,-16.09593 -12.95109,-19.13917 5.3e-4,-5.3e-4 8e-4,-7.9e-4 0.001,-10e-4 -0.0307,-0.0124 -0.0622,-0.0228 -0.0929,-0.0349 -0.24686,-0.0976 -0.49503,-0.19156 -0.74639,-0.27967 -0.0632,-0.0222 -0.12753,-0.0429 -0.19103,-0.0646 -0.23997,-0.0815 -0.48075,-0.16033 -0.72443,-0.23336 -0.078,-0.0233 -0.15689,-0.0444 -0.23521,-0.0667 -0.23336,-0.0667 -0.46778,-0.13177 -0.70459,-0.1905 -0.0897,-0.0222 -0.18071,-0.0415 -0.27093,-0.0624 -0.22913,-0.0534 -0.45852,-0.10609 -0.69056,-0.15187 -0.0982,-0.0193 -0.19738,-0.0349 -0.29581,-0.0529 -0.22833,-0.0415 -0.45667,-0.0831 -0.68738,-0.11695 -0.0982,-0.0145 -0.19738,-0.0246 -0.29581,-0.0376 -0.23468,-0.0312 -0.46884,-0.0624 -0.70591,-0.0855 -0.0804,-0.008 -0.16219,-0.0116 -0.24288,-0.0185 -0.58844,-0.0505 -1.18243,-0.0818 -1.78409,-0.0818 -0.42042,0 -0.83688,0.0164 -1.25121,0.0413 -0.0897,0.005 -0.1786,0.0138 -0.26803,0.0204 -0.32252,0.0236 -0.6432,0.054 -0.96149,0.0921 -0.10742,0.013 -0.21432,0.0262 -0.32094,0.0408 -0.32253,0.0439 -0.64215,0.0955 -0.95965,0.15399 -0.0794,0.0145 -0.15928,0.027 -0.23812,0.0426 -0.79269,0.15584 -1.56872,0.35771 -2.32595,0.60166 -0.0931,0.0299 -0.18495,0.0627 -0.27782,0.0939 -0.28495,0.0963 -0.56673,0.19817 -0.84587,0.30638 -0.1016,0.0394 -0.20293,0.0789 -0.30348,0.11959 -0.29263,0.1188 -0.58155,0.24448 -0.86704,0.37624 -0.0685,0.0318 -0.13837,0.0611 -0.20664,0.0934 -0.35824,0.16986 -0.7112,0.34899 -1.0578,0.53843 -0.0272,0.0148 -0.0534,0.0312 -0.0804,0.0463 -0.31036,0.17171 -0.61516,0.3519 -0.91546,0.53896 -0.0868,0.054 -0.17198,0.11006 -0.25771,0.1651 -0.24606,0.15848 -0.48868,0.32146 -0.7276,0.49 -0.0855,0.0601 -0.17066,0.11986 -0.25506,0.18151 -0.2667,0.1942 -0.52864,0.39449 -0.78528,0.60113 -0.0421,0.0339 -0.0857,0.0662 -0.12779,0.10028 -0.30719,0.25082 -0.60669,0.51012 -0.89879,0.77787 -0.0288,0.0265 -0.0564,0.0542 -0.0849,0.081 -0.25426,0.23574 -0.50191,0.47836 -0.744,0.72654 -0.0643,0.0659 -0.127,0.13282 -0.1905,0.19976 -0.2122,0.22358 -0.41937,0.45191 -0.62177,0.68474 -0.0564,0.0648 -0.11298,0.12912 -0.16854,0.19474 -0.24474,0.28919 -0.4834,0.58367 -0.71226,0.88635 -0.003,0.004 -0.006,0.007 -0.008,0.0108 -0.24606,0.32597 -0.48207,0.65987 -0.70908,1.00065 -0.004,0.006 -0.008,0.0111 -0.0122,0.0169 5.3e-4,-8e-4 0.002,-10e-4 0.003,-0.002 -2.17037,3.26495 -3.4372,7.18237 -3.4372,11.39666 0,2.62519 0.49583,5.133444 1.39065,7.442727 -0.002,7.94e-4 -0.004,0.0011 -0.006,0.0019 0.0296,0.07673 0.0653,0.150283 0.0958,0.226483 0.0945,0.23548 0.19288,0.468577 0.2958,0.699559 0.0566,0.127264 0.11298,0.254793 0.17198,0.380735 0.11668,0.248444 0.23971,0.493183 0.36592,0.736336 0.0497,0.09604 0.0966,0.193675 0.1479,0.288925 0.17648,0.327025 0.36142,0.648493 0.55457,0.964406 0.0585,0.09551 0.12118,0.188119 0.18124,0.282575 0.14314,0.225689 0.28892,0.449262 0.44027,0.668866 0.0812,0.118005 0.1651,0.233628 0.2487,0.34978 0.14156,0.19632 0.28655,0.389995 0.43471,0.581289 0.087,0.112184 0.17357,0.224367 0.263,0.334698 0.17066,0.210873 0.3466,0.417248 0.52546,0.620977 0.0696,0.07937 0.13653,0.161131 0.20744,0.239448 0.2487,0.275167 0.50456,0.543454 0.76755,0.804863 0.072,0.0717 0.14738,0.139964 0.22066,0.210343 0.20003,0.192882 0.4027,0.382852 0.61013,0.567532 0.099,0.08784 0.1995,0.173831 0.30004,0.25982 0.19447,0.166688 0.39238,0.329671 0.5932,0.489215 0.10027,0.07964 0.20029,0.159544 0.30215,0.237331 0.23627,0.180711 0.47731,0.355336 0.72126,0.525727 0.0664,0.0463 0.13044,0.09499 0.19737,0.140494 0.31645,0.215371 0.63924,0.42201 0.96812,0.620183 0.0627,0.03784 0.12752,0.0725 0.19076,0.109538 0.26855,0.157692 0.54028,0.310092 0.81624,0.455877 0.0987,0.05212 0.19844,0.102129 0.29792,0.152665 0.25532,0.129645 0.51356,0.253735 0.7747,0.372797 0.096,0.04366 0.19156,0.08811 0.28813,0.130175 0.31538,0.137848 0.63474,0.268553 0.95806,0.39079 0.0378,0.01429 0.0749,0.03043 0.11297,0.04445 0.38048,0.141552 0.7665,0.271727 1.15729,0.39079 0.0296,0.009 0.0601,0.01667 0.0897,0.0254 0.34951,0.105039 0.70326,0.19976 1.06045,0.286279 0.0328,0.0079 0.0645,0.01852 0.0974,0.02619 8e-4,-0.0011 0.002,-0.0021 0.002,-0.0032 1.533,0.363537 3.13002,0.56171 4.77388,0.56171 5.98805,0 11.37761,-2.555081 15.14449,-6.631781 0.0108,-0.01191 0.0225,-0.02328 0.0333,-0.03519 0.1704,-0.185208 0.33523,-0.375444 0.49874,-0.566737 0.0466,-0.05477 0.095,-0.10795 0.14129,-0.162984 0.14288,-0.170656 0.28046,-0.345545 0.41804,-0.520964 0.0622,-0.07937 0.12594,-0.157692 0.18706,-0.238125 0.12462,-0.163777 0.24448,-0.331259 0.36407,-0.49874 0.0685,-0.09578 0.13785,-0.190764 0.20452,-0.287866 0.1106,-0.160867 0.21723,-0.32438 0.32332,-0.488157 0.0701,-0.108214 0.14076,-0.216164 0.20876,-0.325702 0.0989,-0.159544 0.19447,-0.321469 0.28945,-0.483923 0.0688,-0.117739 0.13732,-0.235479 0.204,-0.354806 0.0894,-0.160337 0.17542,-0.322262 0.26061,-0.484981 0.0656,-0.125413 0.13044,-0.250825 0.19341,-0.377825 0.0804,-0.161925 0.15822,-0.325173 0.23442,-0.489215 0.0609,-0.131233 0.12065,-0.262996 0.17886,-0.395552 0.0722,-0.164835 0.14235,-0.330464 0.21061,-0.497417 0.055,-0.134937 0.10821,-0.270668 0.1606,-0.407193 0.0646,-0.168804 0.1278,-0.338402 0.18812,-0.509323 0.0484,-0.137319 0.0945,-0.275696 0.13997,-0.414338 0.0574,-0.174095 0.1135,-0.348456 0.16615,-0.524668 0.041,-0.137319 0.0794,-0.275696 0.11774,-0.414073 0.05,-0.180975 0.0995,-0.36195 0.14447,-0.544777 0.0106,-0.04233 0.0233,-0.08361 0.0336,-0.125942 -0.002,5.29e-4 -0.003,7.94e-4 -0.005,0.0013 0.37438,-1.552304 0.57758,-3.171294 0.57758,-4.838694 z m -20.61818,19.162975 c -0.75063,0 -1.48987,-0.04815 -2.21827,-0.132556 0.48524,-0.07197 0.98134,-0.139171 1.43774,-0.238919 1.19883,-0.261673 1.45945,-1.956329 2.96545,-1.713442 0.68607,0.110596 1.31287,-5.29e-4 1.91162,-0.340254 0.77364,-0.440796 0.33285,-0.478367 1.54278,-0.698765 0.62416,-0.11377 1.24011,-0.08043 1.8505,-0.264848 0.9525,-0.287866 1.83356,-0.409045 2.80961,-0.08811 0.15849,0.05212 0.29104,0.120386 0.40931,0.198438 -3.05938,2.069041 -6.74555,3.278452 -10.70874,3.278452 z m 18.57242,-14.439371 c -0.76332,-0.416189 -1.27529,-1.356784 -1.52426,-2.222504 -0.29528,-1.02684 -0.51568,-1.35546 -0.9189,-2.50295 -0.24474,-0.69427 -1.15358,-0.71464 -1.76345,-0.63633 -0.91307,0.11721 -1.66026,0.25003 -2.58339,0.0206 -1.0033,-0.2495 -1.93754,-0.72337 -2.91703,-1.02658 -0.87842,-0.27173 -1.82033,-0.5506 -2.18387,0.46434 -0.127,0.35481 -0.30639,0.69559 -0.43392,1.03479 -0.25585,0.6805 -0.0394,1.4814 -0.32808,2.17752 -0.1569,0.37809 -0.36248,0.27225 -0.64664,0.61409 -0.38259,0.4572 -0.34555,1.190365 -0.91599,1.472411 -0.15743,0.07779 -0.33364,0.113242 -0.48736,0.198438 -0.51409,0.28575 -0.58685,0.949854 -0.889,1.402027 -0.4236,0.633941 -1.16946,1.578504 -1.93781,1.795991 -0.81756,0.231511 -1.67852,-0.275431 -2.44793,-0.399256 -0.9562,-0.153987 -2.38654,-0.798248 -3.55891,-1.1684 -1.17263,-0.365919 -1.68804,-0.07064 -3.08081,0.149754 -1.73116,0.273844 -2.46618,2.378604 -3.9362,3.104621 -0.97896,0.483394 -1.92088,0.03413 -2.52095,-0.792692 -0.5842,-0.804068 -1.83515,-1.376891 -3.2811,-1.281641 -0.88688,-2.205038 -1.38033,-4.609303 -1.38033,-7.127873 0,-4.30768 1.42954,-8.28755 3.83831,-11.49139 0.31327,5.3e-4 0.6268,0.005 0.94006,0.013 0.78053,0.0204 1.71794,0.17277 2.4138,-0.27173 1.1475,-0.73289 2.18916,-1.84996 3.15304,-2.80855 0.40719,-0.40508 0.88265,-0.44794 1.37821,-0.70538 0.31803,-0.1651 0.60854,-0.40296 0.77603,-0.71967 0.096,-0.1815 0.15081,-0.38602 0.27516,-0.54954 0.26538,-0.34925 0.839,-0.18494 1.20439,-0.11694 0.84455,0.15981 1.75233,0.76808 2.62096,0.72707 0.85063,-0.04 1.85208,-0.76358 2.52545,-1.22978 0.63103,-0.43683 1.26709,-1.09193 2.05343,-1.20068 0.6514,-0.09 1.36736,0.0691 2.01348,0.14446 0.65696,0.0767 1.3581,0.136 2.00342,0.0246 7.61868,2.53418 13.12995,9.72555 13.12995,18.18428 7.9e-4,1.6301 -0.20505,3.21231 -0.58976,4.723874 z"
         id="path4042" />
      <path
         style="fill:#464646;stroke-width:0.26458332"
         inkscape:connector-curvature="0"
         class="st0"
         d="m -142.87874,-117.26817 c -0.37385,-0.42571 -0.90223,-0.6776 -1.41499,-0.9181 -0.43974,-0.20611 -0.69797,-0.23918 -1.02394,-0.11933 -0.10398,0.0381 -0.21457,0.0918 -0.34052,0.16034 -0.27384,0.14922 -0.53895,0.16933 -0.83661,0.25426 -0.78396,0.22384 -0.31009,1.37531 -0.76676,1.88569 -0.22252,0.24844 -0.50456,0.46514 -0.61251,0.78078 -0.3138,0.91705 0.66781,1.93199 1.52717,1.99417 0.89377,0.0648 1.7698,-0.36962 2.64002,-0.50641 0.43418,-0.0683 0.88238,-0.15399 1.23983,-0.40931 0.57283,-0.40958 0.47969,-0.84958 0.30798,-1.40812 -0.18812,-0.61118 -0.28072,-1.21364 -0.71967,-1.71397 z"
         id="path4044" />
      <path
         style="fill:#464646;stroke-width:0.26458332"
         inkscape:connector-curvature="0"
         class="st0"
         d="m -155.97323,-110.79805 c -0.80698,-0.23759 -1.98993,-0.10874 -2.79691,0.1143 -0.94721,0.26141 -2.46063,0.72073 -2.08545,1.99258 0.37545,1.27185 0.83423,2.8403 2.08545,3.1795 0.76359,0.2069 1.54834,0.26247 2.32913,0.14208 0.75776,-0.11695 1.1676,-0.65193 1.50415,-1.33694 0.25532,-0.51964 0.8763,-1.69783 0.71252,-2.28124 -0.20955,-0.74586 -1.02182,-1.59596 -1.74889,-1.81028 z"
         id="path4046" />
    </g>
    <path
       id="path4058"
       d="m -272.39436,-323.67573 c 8e-4,2.6e-4 0.001,2.6e-4 0.002,5.3e-4 -5.3e-4,-0.32227 -0.0109,-0.64215 -0.0262,-0.96098 -0.003,-0.0545 -0.007,-0.10874 -0.0101,-0.16324 -0.0153,-0.2757 -0.0362,-0.55007 -0.0624,-0.82286 -0.007,-0.0693 -0.0135,-0.13864 -0.0206,-0.20796 -0.0304,-0.28549 -0.0661,-0.56912 -0.10821,-0.8509 -0.006,-0.0368 -0.01,-0.0738 -0.0154,-0.1106 -0.0492,-0.31882 -0.10558,-0.63526 -0.1696,-0.94906 -0.013,-0.0635 -0.0283,-0.1262 -0.0418,-0.18944 -0.0492,-0.23072 -0.10188,-0.46037 -0.15875,-0.68818 -0.0307,-0.12356 -0.0632,-0.24606 -0.0963,-0.36883 -0.0415,-0.15372 -0.0852,-0.30639 -0.13018,-0.45852 -0.0468,-0.15928 -0.0937,-0.31856 -0.14419,-0.47625 -0.002,-0.006 -0.004,-0.0127 -0.006,-0.019 -2.6e-4,0 -5.3e-4,0 -7.9e-4,0 -0.4953,-1.54041 -1.16364,-3.00302 -1.98755,-4.36139 2.6e-4,0 7.9e-4,0 7.9e-4,0 -0.16537,-0.27755 -0.34211,-0.54822 -0.52335,-0.81651 -0.0236,-0.0352 -0.0481,-0.0696 -0.072,-0.10451 -0.0786,-0.11456 -0.15504,-0.22992 -0.23627,-0.34316 -0.0381,-0.0532 -0.0804,-0.10346 -0.1188,-0.15637 -0.17277,-0.23813 -0.3511,-0.47149 -0.53366,-0.70168 -0.0344,-0.0429 -0.0651,-0.0889 -0.10002,-0.13149 -0.001,0 -0.002,0 -0.003,-2.6e-4 -0.76226,-0.94536 -1.60708,-1.82007 -2.52226,-2.61726 0.006,7.9e-4 0.0124,0.002 0.0185,0.002 -1.1348,-0.98849 -2.37966,-1.85261 -3.71185,-2.57678 -0.0172,-0.009 -0.0347,-0.018 -0.0519,-0.0272 -0.26116,-0.14101 -0.52547,-0.27622 -0.79322,-0.40613 -0.0553,-0.027 -0.11139,-0.0524 -0.16696,-0.0788 -0.23309,-0.11059 -0.46831,-0.21722 -0.70617,-0.31934 -0.0706,-0.0302 -0.14129,-0.0598 -0.2122,-0.0892 -0.22886,-0.095 -0.45958,-0.186 -0.69241,-0.27305 -0.0744,-0.0278 -0.14843,-0.0558 -0.22332,-0.0825 -0.24049,-0.0868 -0.48313,-0.16827 -0.72759,-0.24633 -0.0648,-0.0206 -0.12912,-0.0423 -0.19421,-0.0624 -0.28125,-0.0865 -0.56515,-0.16695 -0.85143,-0.24183 -0.0275,-0.007 -0.0548,-0.0156 -0.0823,-0.0225 -0.65379,-0.16774 -1.31975,-0.30427 -1.99681,-0.40772 -5.3e-4,0 -8e-4,0 -10e-4,-2.6e-4 -0.32624,-0.05 -0.65538,-0.091 -0.98664,-0.12542 -0.0519,-0.005 -0.10424,-0.009 -0.1561,-0.014 -0.28257,-0.0273 -0.56647,-0.0492 -0.85249,-0.0648 -0.0685,-0.004 -0.13732,-0.006 -0.20611,-0.01 -0.15028,-0.007 -0.29977,-0.0169 -0.45111,-0.0206 -0.16219,-0.004 -0.32438,-0.004 -0.48657,-0.004 -1.06627,0 -2.11323,0.082 -3.1361,0.23813 -0.0262,0.004 -0.0519,0.01 -0.078,0.0138 -0.31195,0.0489 -0.62204,0.10318 -0.92922,0.16589 -0.0654,0.0132 -0.12939,0.0304 -0.19447,0.0442 -0.26644,0.0572 -0.53208,0.11615 -0.79481,0.18335 -0.0905,0.0233 -0.17886,0.0508 -0.26882,0.0751 -0.23521,0.0638 -0.47016,0.12753 -0.70194,0.19923 -0.10477,0.0323 -0.20717,0.0696 -0.31115,0.10372 -0.21431,0.0701 -0.42889,0.1397 -0.64001,0.21643 -0.11245,0.041 -0.22252,0.0868 -0.33392,0.12965 -0.19975,0.0767 -0.40005,0.15267 -0.59663,0.23522 -0.11457,0.0482 -0.22674,0.10133 -0.34026,0.1516 -0.19023,0.0841 -0.381,0.16721 -0.56832,0.25691 -0.11377,0.0545 -0.22489,0.11377 -0.33761,0.17012 -0.18361,0.0921 -0.36751,0.18337 -0.54768,0.28046 -0.11008,0.0595 -0.21722,0.12303 -0.32624,0.18442 -0.17964,0.10107 -0.35956,0.20161 -0.53578,0.30797 -0.10398,0.0627 -0.20505,0.12938 -0.3077,0.19394 -0.17702,0.11113 -0.35428,0.22199 -0.52759,0.3384 -0.0968,0.0651 -0.19103,0.13362 -0.2868,0.20029 -0.17569,0.12224 -0.35111,0.24421 -0.52256,0.37174 -0.0873,0.0651 -0.17225,0.13309 -0.25849,0.1995 -0.17569,0.13494 -0.35138,0.27014 -0.52256,0.41063 -0.0778,0.0638 -0.1532,0.13044 -0.22991,0.19526 -0.1757,0.14844 -0.35084,0.2974 -0.52124,0.45165 -0.0677,0.0611 -0.13335,0.12488 -0.20003,0.18679 -0.13705,0.127 -0.27622,0.25189 -0.40957,0.38233 0.003,-2.6e-4 0.007,-0.001 0.01,-0.001 -1.27186,1.24487 -2.38311,2.65191 -3.30015,4.18942 -0.005,0.008 -0.0106,0.0159 -0.0153,0.0241 -0.0275,0.0463 -0.0524,0.0945 -0.0796,0.14103 -0.12805,0.21934 -0.25453,0.43973 -0.37465,0.6641 -0.0389,0.0722 -0.0743,0.14632 -0.11217,0.21908 -0.10717,0.20611 -0.21431,0.41222 -0.31486,0.6223 -0.005,0.0111 -0.0114,0.022 -0.0167,0.0331 7.9e-4,0 10e-4,-2.6e-4 0.002,-2.6e-4 -0.47546,1.00013 -0.86889,2.04603 -1.18031,3.12685 -0.002,0 -0.004,0 -0.007,2.6e-4 -0.045,0.15558 -0.0857,0.31301 -0.127,0.4699 -0.0106,0.041 -0.0225,0.0815 -0.0331,0.12251 -0.0786,0.30691 -0.14974,0.61648 -0.2143,0.92868 -0.008,0.0368 -0.0143,0.0738 -0.0217,0.1106 -0.0574,0.28549 -0.10875,0.57335 -0.15426,0.86307 -0.007,0.0413 -0.0135,0.0825 -0.0198,0.12383 -0.0487,0.32358 -0.0907,0.64928 -0.12409,0.97763 -10e-4,0.0124 -0.002,0.0249 -0.003,0.0373 -0.0304,0.30427 -0.0527,0.61066 -0.0699,0.91863 -0.003,0.0614 -0.007,0.12303 -0.01,0.18468 -0.0151,0.32359 -0.0254,0.64849 -0.0254,0.97605 0,0.0741 0.006,0.14684 0.006,0.22066 0.003,0.3011 0.01,0.60113 0.0257,0.89905 8e-4,0.0148 5.3e-4,0.0296 0.001,0.0444 8e-4,-2.6e-4 10e-4,-5.3e-4 0.002,-5.3e-4 0.24157,4.34155 1.82854,8.32141 4.3479,11.53742 0.0336,0.0455 0.0648,0.0929 0.099,0.13811 0.003,0 0.006,0 0.01,0 0.83291,1.04484 1.76451,2.0066 2.78183,2.87179 -0.002,7.9e-4 -0.003,7.9e-4 -0.006,0.002 0.0452,0.0386 0.0923,0.0746 0.13758,0.11271 0.081,0.0677 0.16299,0.13387 0.24501,0.20028 0.16854,0.13679 0.33866,0.27067 0.5117,0.40217 0.0759,0.0577 0.15214,0.1151 0.22913,0.17172 0.17436,0.12858 0.35137,0.25373 0.52996,0.37677 0.0857,0.0593 0.17092,0.11906 0.25771,0.177 0.15689,0.10451 0.3167,0.20532 0.47651,0.3056 0.11351,0.0714 0.22595,0.14473 0.34105,0.21405 10e-4,5.3e-4 0.002,10e-4 0.003,0.002 0,0 2.7e-4,0 2.7e-4,0 1.62798,0.98004 3.4028,1.73963 5.28292,2.24235 -0.002,10e-4 -0.004,0.002 -0.007,0.003 0.0315,0.008 0.064,0.014 0.0958,0.0222 0.38259,0.10055 0.76941,0.1905 1.16047,0.26935 0.0635,0.0127 0.12832,0.0222 0.19208,0.0344 0.33629,0.0643 0.67522,0.12038 1.01707,0.168 0.12065,0.0169 0.24183,0.0312 0.363,0.046 0.2974,0.0362 0.5969,0.0656 0.898,0.0889 0.12435,0.01 0.24818,0.0209 0.37306,0.0283 0.3945,0.0236 0.79111,0.0384 1.19142,0.0394 0.0175,0 0.0347,0.002 0.0524,0.002 0.0474,0 0.0939,-0.004 0.14129,-0.004 0.32676,-0.002 0.65193,-0.0103 0.97472,-0.0275 0.14023,-0.007 0.27888,-0.0214 0.41831,-0.0317 0.23098,-0.0169 0.46197,-0.0339 0.69057,-0.0585 0.15425,-0.0167 0.30665,-0.0384 0.45984,-0.0585 0.21219,-0.0275 0.42413,-0.0558 0.63394,-0.0897 0.15664,-0.0254 0.31194,-0.0545 0.46725,-0.0833 0.204,-0.0378 0.4072,-0.0775 0.60908,-0.12119 0.15531,-0.0339 0.30956,-0.0699 0.46381,-0.10688 0.19923,-0.0481 0.3974,-0.0992 0.59452,-0.1532 0.15161,-0.0415 0.30295,-0.0839 0.45323,-0.12859 0.19738,-0.059 0.39317,-0.12196 0.5879,-0.18679 0.14526,-0.0481 0.29078,-0.0958 0.43471,-0.14712 0.19871,-0.0709 0.3945,-0.1471 0.59055,-0.22383 0.13627,-0.0534 0.27358,-0.10478 0.40826,-0.16086 0.20928,-0.0873 0.4146,-0.18097 0.62018,-0.2749 0.10054,-0.0458 0.20373,-0.0871 0.30348,-0.13441 -0.002,0 -0.003,-2.6e-4 -0.005,-2.6e-4 1.47796,-0.70327 2.85777,-1.57798 4.11639,-2.59715 0.003,-2.7e-4 0.006,-8e-4 0.01,-0.001 0.0249,-0.0201 0.0471,-0.0426 0.072,-0.0627 0.32994,-0.26988 0.65008,-0.55112 0.96255,-0.84058 0.095,-0.0881 0.18812,-0.1786 0.28152,-0.26829 0.25823,-0.24845 0.51038,-0.50297 0.75539,-0.76464 0.0511,-0.0545 0.10689,-0.10425 0.15743,-0.15928 -0.002,0 -0.003,-2.7e-4 -0.005,-2.7e-4 3.36629,-3.6695 5.4221,-8.56032 5.4221,-13.93243 -5.3e-4,-0.0169 -0.002,-0.0336 -0.002,-0.0505 z m -32.05189,-15.31674 c 1.85315,-0.48815 3.93251,-1.07791 6.35106,-1.21523 4.46511,-0.25506 10.30261,0.11615 15.80912,0.71014 1.20729,0.81836 2.31431,1.77298 3.30438,2.83792 -2.83316,-0.11112 -5.63642,-0.0839 -8.34972,-0.0839 -8.33332,0 -15.53051,0.43603 -20.65919,1.18824 1.03002,-1.2909 2.21959,-2.44871 3.54435,-3.4372 z m -5.41946,6.25634 c 3.66157,-0.52573 7.11703,-0.81359 10.30578,-1.12157 9.73667,-0.93186 17.26672,-0.79137 22.3864,-0.54107 0.89403,1.30995 1.6301,2.73552 2.18017,4.25026 -6.22379,-0.74691 -13.81839,-0.93583 -22.20066,0.008 -5.32103,0.59769 -10.29679,0.69373 -14.09885,0.7702 0.36989,-1.17475 0.84905,-2.30082 1.42716,-3.36603 z m 22.03794,27.55558 c -3.28427,-0.0992 -5.72717,0.0466 -7.79198,0.53603 -1.73778,-0.23758 -3.40254,-0.70669 -4.9604,-1.37927 5.42184,-0.18943 12.26634,-0.69877 17.53446,-1.2401 -1.47479,0.9017 -3.08187,1.60496 -4.78208,2.08334 z m 8.02428,-4.58021 c -7.37631,-0.072 -18.44436,1.59915 -24.16889,1.83991 -1.20306,-0.84216 -2.30663,-1.81662 -3.28612,-2.90591 0.59319,-0.0378 1.1848,-0.0979 1.77244,-0.17914 0.56012,-0.0775 1.11681,-0.1762 1.6682,-0.30267 0.39079,-0.0897 0.71173,-0.20293 1.12104,-0.12859 0.40031,0.0728 0.77734,0.25506 1.12527,0.4601 2.65668,1.56582 6.59844,2.24421 8.96461,-0.22833 0.3937,-0.41143 0.70803,-0.89931 0.91361,-1.4306 0.11033,-0.28495 0.20955,-0.61515 0.51726,-0.71992 0.39079,-0.13309 0.94377,-0.0886 1.35493,-0.1106 2.04708,-0.10928 4.13861,-0.0236 6.18358,0.1082 1.92563,0.12146 3.86318,0.28947 5.76103,0.64824 0.1868,0.0354 0.37069,0.0561 0.55298,0.0701 -0.73078,1.04035 -1.5621,2.00449 -2.47994,2.8792 z m -18.51263,-1.95553 c 0.54505,0.36617 1.47426,0.24103 2.07301,0.081 0.53764,-0.14341 1.05305,-0.46858 1.2962,-0.96918 0.20558,-0.42332 0.19314,-0.93556 0.0116,-1.36974 -0.18151,-0.43418 -0.52123,-0.7919 -0.92048,-1.04087 0.1262,-0.0325 0.25664,-0.031 0.38496,-0.0426 0.27914,-0.0254 0.55351,0.0566 0.81994,0.13044 0.22728,0.063 0.44662,0.1762 0.64215,0.30691 0.0958,0.064 0.18732,0.13467 0.27385,0.21062 0.0429,0.0376 0.0847,0.0767 0.12487,0.11721 0.0201,0.0201 0.0402,0.0408 0.0598,0.0614 0.0101,0.0109 0.0577,0.0495 0.0577,0.0635 0.89879,1.01891 0.16907,2.23546 -0.81518,2.85088 -0.20108,0.12568 -0.41301,0.22807 -0.63288,0.31009 -1.10781,0.41381 -2.41591,0.31512 -3.54489,0.12065 -0.61304,-0.10556 -1.22291,-0.26723 -1.79176,-0.52149 -0.40984,-0.18309 -0.948,-0.30507 -1.16628,-0.73766 -0.43815,-0.8681 0.51329,-1.55284 1.16709,-1.9222 1.15304,-0.65166 2.87627,-0.79745 3.89386,0.27411 0.40852,0.43021 0.30798,0.99695 -0.24739,1.21285 -0.56012,0.21776 -1.54384,-0.49689 -1.97802,0.0101 -0.2368,0.27569 0.0601,0.6985 0.29183,0.85407 z m 24.03555,-7.86871 c -2.15583,0.19341 -4.6572,0.23732 -6.90563,-0.0281 -3.53324,-0.41672 -20.09669,0.35745 -30.29981,1.06468 -0.3818,-1.38774 -0.61146,-2.83739 -0.66887,-4.33124 2.95275,-0.82443 6.30475,-1.53432 9.67634,-1.47373 5.57556,0.10822 7.39272,0.58632 12.32799,0.36592 4.93131,-0.2204 7.96634,-0.9189 11.38,-0.75247 1.4433,0.0696 3.27554,0.38999 4.91252,0.73686 0.002,0.12621 0.01,0.2511 0.01,0.37756 2.6e-4,1.38644 -0.15135,2.73714 -0.43207,4.04047 z"
       class="st0"
       inkscape:connector-curvature="0"
       style="fill:#464646;stroke-width:0.26458332" />
    <path
       id="path4078"
       d="m -208.7863,-331.62734 c -1.14749,-3.13082 -5.8793,-4.58603 -12.46532,-4.35743 0.009,0.0124 -0.0828,-0.11483 -0.13732,-0.19076 0.001,-0.002 -0.0762,-0.10901 -0.11509,-0.16219 -0.11113,-0.15134 -0.22543,-0.30004 -0.34052,-0.4482 -0.0886,-0.11404 -0.17674,-0.2286 -0.26776,-0.34079 -0.12647,-0.1561 -0.25664,-0.30877 -0.38761,-0.46117 -0.0931,-0.10848 -0.18521,-0.21722 -0.28046,-0.32385 -0.12436,-0.13864 -0.25215,-0.27358 -0.38021,-0.40878 -0.11006,-0.11641 -0.21881,-0.23389 -0.33152,-0.34766 -0.11509,-0.11615 -0.23416,-0.2286 -0.3519,-0.34211 -0.10504,-0.10133 -0.20664,-0.20611 -0.31378,-0.30506 -7.9e-4,10e-4 -0.002,0.002 -0.003,0.003 -1.47268,-1.35916 -3.14273,-2.50719 -4.96385,-3.39407 8e-4,-5.3e-4 0.002,-10e-4 0.002,-0.002 -0.0164,-0.008 -0.0336,-0.0146 -0.0503,-0.0228 -0.32121,-0.15531 -0.64692,-0.30243 -0.97712,-0.44132 -0.0664,-0.0278 -0.13413,-0.0521 -0.20081,-0.0791 -0.29712,-0.12118 -0.59716,-0.23628 -0.90091,-0.34397 -0.01,-0.003 -0.0191,-0.008 -0.0288,-0.0111 h -0.004 c -1.67005,-0.5887 -3.43825,-0.966 -5.27368,-1.10543 0.003,-0.003 0.006,-0.006 0.01,-0.009 -0.14817,-0.0106 -0.2966,-0.0164 -0.44476,-0.0243 -0.0492,-0.003 -0.0982,-0.006 -0.14738,-0.008 -0.33152,-0.0153 -0.6641,-0.0259 -1.00012,-0.0259 -0.26061,0 -0.51858,0.0108 -0.77682,0.0204 -0.0958,0.004 -0.19261,0.003 -0.28813,0.008 -0.22304,0.0114 -0.44318,0.0323 -0.6641,0.0505 -0.13389,0.0111 -0.26883,0.0183 -0.40191,0.0317 -0.21272,0.0217 -0.42254,0.0521 -0.63314,0.0804 -0.13892,0.0185 -0.27887,0.0339 -0.41673,0.055 -0.2069,0.032 -0.41115,0.072 -0.61595,0.11007 -0.1389,0.0259 -0.2786,0.049 -0.41645,0.0775 -0.20241,0.0421 -0.40216,0.091 -0.60246,0.13917 -0.13705,0.0328 -0.27489,0.0632 -0.41089,0.099 -0.19871,0.0519 -0.39449,0.11006 -0.59082,0.16774 -0.1344,0.0394 -0.26934,0.077 -0.40243,0.11933 -0.19499,0.0617 -0.38708,0.12884 -0.57943,0.19605 -0.13098,0.0458 -0.2622,0.0902 -0.39212,0.13838 -0.19155,0.0714 -0.38048,0.14764 -0.56939,0.22437 -0.12646,0.0516 -0.25346,0.10212 -0.37887,0.15609 -0.18787,0.081 -0.37334,0.16617 -0.55801,0.25242 -0.12276,0.0571 -0.24527,0.11378 -0.36646,0.17331 -0.18334,0.09 -0.36458,0.18387 -0.54476,0.27912 -0.11855,0.0627 -0.23707,0.12542 -0.35428,0.19023 -0.1786,0.0987 -0.35482,0.20084 -0.52996,0.3048 -0.1151,0.0683 -0.22967,0.1368 -0.34343,0.20719 -0.17251,0.10689 -0.34264,0.21616 -0.51171,0.3278 -0.11272,0.0743 -0.22463,0.14977 -0.33575,0.2265 -0.1651,0.11377 -0.32835,0.22992 -0.49002,0.34845 -0.11032,0.081 -0.21959,0.16299 -0.32835,0.24606 -0.15716,0.12013 -0.31273,0.2421 -0.46645,0.36644 -0.10927,0.0884 -0.21696,0.17861 -0.32412,0.26936 -0.14737,0.12461 -0.29369,0.2503 -0.43735,0.37888 -0.1098,0.0982 -0.21749,0.19817 -0.32492,0.29845 -0.13572,0.12673 -0.27065,0.254 -0.40296,0.38418 -0.11164,0.1098 -0.22066,0.22225 -0.32993,0.33469 -0.0815,0.0839 -0.16641,0.16458 -0.24633,0.25004 0.003,0 0.006,0 0.008,0 -1.24989,1.33111 -2.32569,2.82654 -3.18954,4.45294 -10e-4,0 -0.002,0 -0.003,0 -0.0373,0.0704 -0.0696,0.14339 -0.10611,0.21404 -0.11694,0.22675 -0.23176,0.45481 -0.34051,0.68658 -0.0566,0.12014 -0.11034,0.24211 -0.16457,0.36354 -0.0982,0.21988 -0.19289,0.44133 -0.28338,0.66516 -0.0236,0.0587 -0.0511,0.11511 -0.0741,0.17438 0.002,0 0.004,0 0.006,0 -0.80962,2.05528 -1.30201,4.26958 -1.40864,6.58601 -7.9e-4,0 -0.001,0 -0.002,0 -0.008,0.19631 -0.009,0.39396 -0.0127,0.59108 -0.002,0.12488 -0.01,0.24817 -0.01,0.37358 0,0.0767 0.005,0.15213 0.006,0.2286 0.002,0.23099 0.007,0.46144 0.0175,0.69057 0.006,0.13176 0.0146,0.26273 0.0228,0.39396 0.0116,0.18839 0.0286,0.44424 0.022,0.36248 -5.53005,4.22434 -8.43624,8.57753 -7.2472,11.8208 1.40944,3.84175 8.44868,5.45094 17.60829,4.4323 0.003,-2.6e-4 0.006,-8e-4 0.01,-10e-4 1.31498,0.74824 2.7186,1.3581 4.19392,1.80498 -0.003,2.6e-4 -0.005,5.3e-4 -0.008,5.3e-4 0.26643,0.0812 0.5355,0.15558 0.80645,0.22596 0.0421,0.0109 0.0847,0.0204 0.12673,0.0312 0.26801,0.068 0.53843,0.12991 0.81067,0.18706 0.059,0.0124 0.11802,0.0246 0.17702,0.0365 0.62917,0.1262 1.26841,0.22436 1.91663,0.29157 0.0484,0.005 0.0974,0.009 0.1458,0.0135 0.27569,0.0267 0.55297,0.0476 0.83158,0.0632 0.0656,0.004 0.13096,0.008 0.19712,0.0109 0.32463,0.0151 0.65061,0.0254 0.97922,0.0254 0.0286,0 0.0566,-0.003 0.0852,-0.003 0.38762,-0.002 0.77205,-0.0156 1.15438,-0.0381 0.13679,-0.008 0.27252,-0.0204 0.40851,-0.031 0.28681,-0.0228 0.57178,-0.0508 0.85514,-0.0852 0.13574,-0.0164 0.27146,-0.0325 0.4064,-0.0516 0.33417,-0.0471 0.66542,-0.10266 0.99404,-0.16563 0.0688,-0.0132 0.13865,-0.023 0.20717,-0.037 0.39687,-0.0802 0.78898,-0.17357 1.17713,-0.27623 0.10001,-0.0265 0.19817,-0.0566 0.2974,-0.0844 0.29659,-0.0833 0.59055,-0.17251 0.88158,-0.26855 0.11139,-0.0368 0.22252,-0.0741 0.33311,-0.11271 0.31194,-0.10901 0.62019,-0.22516 0.92499,-0.34846 0.0656,-0.0265 0.13229,-0.0505 0.19737,-0.0778 0.3773,-0.15716 0.74851,-0.32491 1.11416,-0.50324 0.0471,-0.023 0.0931,-0.0484 0.13997,-0.0717 0.31485,-0.15663 0.62468,-0.32146 0.93002,-0.49371 0.0812,-0.0458 0.16165,-0.0923 0.24208,-0.13917 0.29369,-0.17065 0.58235,-0.34819 0.86678,-0.53287 0.0529,-0.0344 0.10689,-0.0675 0.15954,-0.10213 0.68289,-0.45244 1.33615,-0.94535 1.95871,-1.47373 0.0511,-0.0434 0.10107,-0.0876 0.15161,-0.13123 0.26908,-0.23284 0.53208,-0.47255 0.78872,-0.71887 0.0399,-0.0384 0.0804,-0.0759 0.12012,-0.11457 0.59293,-0.57838 1.1512,-1.19194 1.67137,-1.8378 0.0249,-0.031 0.0489,-0.0627 0.0738,-0.0939 0.23416,-0.29448 0.46038,-0.59531 0.6784,-0.90249 0.0291,-0.041 0.0587,-0.0818 0.0876,-0.1233 1.03082,-1.47372 1.87588,-3.0861 2.49634,-4.80721 7.34113,-5.04693 11.34454,-10.65981 9.95177,-14.45975 z m -13.64483,-3.48959 c 0.71093,1.01573 1.3253,2.10291 1.83118,3.24908 -9.84541,10.61245 -26.38663,14.64947 -35.06285,15.44744 -0.64241,-1.44912 -1.11072,-2.99085 -1.37716,-4.60109 9.87373,-0.42968 17.95622,-3.48855 23.27752,-6.19894 4.4495,-2.26695 8.39946,-5.04772 11.33131,-7.89649 z m -28.58241,-3.22422 c 4.31509,-0.34131 9.06859,-1.88621 12.89897,-4.98104 1.89547,0.002 3.72586,0.28469 5.45597,0.80195 -8.1198,6.19919 -16.14197,8.16002 -21.96756,8.6106 0.98028,-1.65179 2.19869,-3.14669 3.61262,-4.43151 z m -4.71514,6.58734 c 6.43546,-0.2974 15.90119,-2.29606 25.35741,-9.91791 1.91875,0.85434 3.6732,2.01242 5.19879,3.41709 -2.35267,2.33151 -5.81845,4.9538 -10.4775,7.33002 -4.94479,2.51989 -12.45949,5.36469 -21.6244,5.75442 0.12145,-2.32833 0.66279,-4.54633 1.5457,-6.58362 z m 1.28111,20.20888 c -3.72533,-0.0831 -6.27009,-0.99378 -6.92282,-2.76912 -0.60695,-1.6547 0.53234,-3.80868 2.95619,-6.09944 -0.0302,-0.16563 0.60801,2.64715 1.21047,4.10792 0,0 -2.6e-4,0 -5.3e-4,0 10e-4,0.003 0.003,0.006 0.004,0.008 0.16404,0.3974 0.33919,0.78925 0.52705,1.17369 0.0288,0.059 0.0603,0.11668 0.0897,0.17542 0.16563,0.33099 0.34052,0.65669 0.52308,0.97737 0.0146,0.0251 0.0267,0.0519 0.0413,0.077 0.001,0 0.002,-2.6e-4 0.003,-2.6e-4 0.47202,0.82047 0.99827,1.60523 1.57506,2.3495 -0.002,-7.9e-4 -0.004,-5.3e-4 -0.006,-5.3e-4 z m 29.55528,1.21233 c -4.3897,2.61804 -9.4689,4.40505 -14.36475,5.30013 -2.2995,-0.13308 -4.49051,-0.67363 -6.50373,-1.5502 4.02855,-0.63261 8.37275,-1.73592 12.78414,-3.35332 4.50401,-1.65391 8.57356,-3.65867 12.05151,-5.81291 -0.99801,2.0344 -2.34792,3.86452 -3.96717,5.4163 z m 5.9161,-13.81444 c -3.72931,3.03769 -9.5049,6.20344 -16.29544,8.69368 -6.44074,2.3622 -12.57591,3.67216 -17.29528,3.8833 -0.67866,-0.77681 -1.29646,-1.60709 -1.84441,-2.4863 9.07971,-1.05251 24.73987,-5.17974 34.7435,-15.19503 0.44794,1.62243 0.69215,3.32846 0.69215,5.09138 0,0.005 -5.3e-4,0.008 -5.3e-4,0.013 z m 1.41683,-1.23958 c -2.6e-4,2.6e-4 -5.3e-4,2.6e-4 -5.3e-4,5.3e-4 -0.12884,-2.19763 -0.60431,-4.30106 -1.36842,-6.26083 -0.0339,-0.0871 -0.0677,-0.1741 -0.10293,-0.26062 -0.15345,-0.37809 -0.31484,-0.75221 -0.48974,-1.11866 -0.006,-0.013 -0.0111,-0.027 -0.0175,-0.0399 -2.6e-4,2.6e-4 -2.6e-4,2.6e-4 -2.6e-4,5.3e-4 -0.22727,-0.47387 -0.61462,-1.18507 -0.55668,-1.08135 2.92709,0.26617 4.9022,1.15596 5.46338,2.68605 0.60696,1.65047 -0.52414,3.79174 -2.92735,6.0743 z"
       class="st0"
       inkscape:connector-curvature="0"
       style="fill:#464646;stroke-width:0.26458332" />
    <path
       id="path4094"
       d="m -388.01367,-262.43706 c 0,-2.35664 -0.40084,-4.61856 -1.12897,-6.72809 5.3e-4,0 8e-4,2.7e-4 10e-4,2.7e-4 -0.004,-0.0114 -0.008,-0.0222 -0.0122,-0.0333 -0.0831,-0.23945 -0.17093,-0.47678 -0.26247,-0.712 -0.0447,-0.11536 -0.0892,-0.23071 -0.136,-0.34528 -0.0913,-0.22278 -0.18812,-0.44238 -0.28707,-0.66119 -0.0204,-0.045 -0.0381,-0.091 -0.059,-0.136 -7.9e-4,-2.6e-4 -0.002,-2.6e-4 -0.003,-5.3e-4 -0.82656,-1.79361 -1.90235,-3.44725 -3.18426,-4.91834 0.003,0.002 0.007,0.003 0.0103,0.004 -0.0471,-0.0545 -0.0974,-0.10609 -0.14526,-0.16007 -0.0971,-0.10927 -0.19499,-0.21749 -0.29421,-0.32438 -0.13096,-0.14155 -0.26431,-0.28072 -0.39925,-0.41883 -0.078,-0.0796 -0.15611,-0.15928 -0.23549,-0.23786 -0.1651,-0.16325 -0.33364,-0.32306 -0.50402,-0.48049 -0.0574,-0.0529 -0.11403,-0.10689 -0.17199,-0.15901 -0.20505,-0.18548 -0.4146,-0.36619 -0.62733,-0.54346 -0.0288,-0.0238 -0.0566,-0.0484 -0.0852,-0.0722 -0.0458,-0.0378 -0.0897,-0.0778 -0.13601,-0.11509 -0.006,-0.002 -0.0116,-0.003 -0.0172,-0.005 -3.53853,-2.8575 -8.03883,-4.57147 -12.94103,-4.57147 -5.07656,0 -9.72159,1.83806 -13.3141,4.88077 -0.0466,0.0392 -0.0915,0.0796 -0.13758,0.11906 -0.17754,0.15319 -0.35454,0.30745 -0.52679,0.46646 -0.0717,0.0662 -0.14076,0.13467 -0.2114,0.20161 -0.15875,0.15055 -0.31723,0.3011 -0.47096,0.45667 -0.006,0.006 -0.0114,0.0122 -0.0175,0.0183 -1.642,1.66476 -3.00117,3.60786 -4.00394,5.75151 -2.6e-4,0 -5.3e-4,0 -8e-4,2.6e-4 -0.009,0.0196 -0.0169,0.0397 -0.0259,0.0593 -0.12568,0.27067 -0.24659,0.54372 -0.36036,0.82047 -0.0278,0.0672 -0.0529,0.13547 -0.0802,0.2032 -0.0979,0.24501 -0.19288,0.4916 -0.28152,0.7411 -0.007,0.0185 -0.0145,0.0368 -0.0209,0.0553 8e-4,-2.6e-4 0.002,-2.6e-4 0.002,-5.3e-4 -0.7538,2.14233 -1.1684,4.44447 -1.1684,6.84477 0,0.26061 0.01,0.51886 0.0196,0.77735 -5.2e-4,0 -7.9e-4,0 -10e-4,0 5.3e-4,0.0148 0.002,0.0291 0.002,0.0439 0.008,0.20373 0.0201,0.4064 0.0341,0.60854 0.008,0.12224 0.0175,0.2437 0.0278,0.36513 0.0159,0.18468 0.0333,0.36856 0.0542,0.55192 0.004,0.0352 0.006,0.0709 0.0103,0.10611 10e-4,0 0.002,2.5e-4 0.003,2.5e-4 0.26035,2.19526 0.86466,4.28414 1.75922,6.21216 -0.001,-2.6e-4 -0.002,-5.2e-4 -0.003,-5.2e-4 0.0119,0.0257 0.0257,0.0505 0.0378,0.0765 0.10822,0.23098 0.22225,0.45827 0.33867,0.68448 0.0434,0.0841 0.0847,0.16854 0.12912,0.25188 0.78925,1.4814 1.75286,2.85539 2.86517,4.09364 0.0138,0.0153 0.0267,0.0315 0.0405,0.0468 0.086,0.0953 0.17568,0.18679 0.26353,0.28045 0.12752,0.13626 0.25505,0.27226 0.38629,0.40508 0.0868,0.0876 0.17568,0.17251 0.26405,0.2585 0.13362,0.13044 0.26829,0.25982 0.40561,0.38655 0.0976,0.0902 0.19685,0.17887 0.29633,0.26723 0.0669,0.0595 0.13176,0.12119 0.1995,0.17965 0.004,0.001 0.008,0.002 0.0124,0.004 3.61395,3.1242 8.32088,5.01836 13.47311,5.01836 5.29511,0 10.12242,-1.99814 13.77394,-5.27897 10e-4,-5.3e-4 0.002,-7.9e-4 0.003,-0.001 0,0 0,0 0.004,0 0.0254,-0.023 0.0497,-0.0474 0.0751,-0.0704 0.0135,-0.0122 0.0262,-0.0249 0.0394,-0.037 0.21166,-0.19395 0.4191,-0.39159 0.62256,-0.59347 0.0643,-0.0638 0.127,-0.12938 0.19024,-0.19393 0.1524,-0.15532 0.30294,-0.31248 0.45032,-0.47229 0.0759,-0.0825 0.15107,-0.16589 0.22569,-0.24976 0.127,-0.14235 0.25188,-0.28681 0.37491,-0.43286 0.0873,-0.10345 0.1741,-0.20717 0.25956,-0.31248 0.0339,-0.0418 0.0693,-0.082 0.10292,-0.12408 -0.003,0.001 -0.006,0.003 -0.008,0.004 0.31222,-0.39079 0.61226,-0.79191 0.89588,-1.20518 8e-4,0 0.002,-2.7e-4 0.002,-2.7e-4 0.009,-0.0124 0.0161,-0.0257 0.0249,-0.0384 0.13096,-0.19155 0.25559,-0.38735 0.37994,-0.58367 0.0643,-0.10133 0.13176,-0.20055 0.1942,-0.30268 0.0966,-0.15822 0.1868,-0.32068 0.27914,-0.48154 0.0741,-0.12885 0.15213,-0.25533 0.22357,-0.38576 -5.3e-4,0 -10e-4,0 -0.002,2.6e-4 1.23111,-2.2569 2.04787,-4.77044 2.35981,-7.43823 10e-4,0 0.003,-2.6e-4 0.004,-2.6e-4 0.005,-0.041 0.007,-0.0823 0.0119,-0.12329 0.0167,-0.15002 0.0304,-0.30057 0.0439,-0.45138 0.0143,-0.16113 0.0267,-0.32305 0.0368,-0.48525 0.0124,-0.18997 0.0225,-0.38047 0.0296,-0.5715 5.3e-4,-0.0148 0.002,-0.0294 0.002,-0.0442 -2.6e-4,0 -7.9e-4,0 -0.001,0 0.009,-0.24765 0.019,-0.49476 0.019,-0.74427 z m -20.61792,-19.16297 c 3.00461,0 5.84888,0.69691 8.38253,1.93463 -2.6961,-0.52864 -5.59197,-0.8173 -8.60478,-0.8173 -2.74452,0 -5.39115,0.2413 -7.87902,0.68474 2.46274,-1.15332 5.207,-1.80207 8.10127,-1.80207 z m -11.88032,4.14416 c 3.47345,-1.00197 7.44458,-1.57136 11.65834,-1.57136 4.50374,0 8.73045,0.6477 12.36874,1.78065 1.94575,1.59888 3.57029,3.57373 4.76568,5.81131 -5.334,-1.06654 -11.13685,-1.62957 -17.13442,-1.62957 -5.81052,0 -11.44455,0.52943 -16.64123,1.53352 1.2446,-2.29843 2.94798,-4.31165 4.98289,-5.92455 z m 11.88032,34.18153 c -3.41735,0 -6.62596,-0.90355 -9.40699,-2.47782 2.86014,0.6051 5.95101,0.94377 9.18501,0.94377 3.51023,0 6.85271,-0.39847 9.91288,-1.10728 -2.8456,1.6756 -6.15686,2.64133 -9.6909,2.64133 z m 12.92543,-5.02947 c -3.80788,1.28879 -8.31533,2.04047 -13.14768,2.04047 -4.53522,0 -8.78575,-0.66093 -12.44044,-1.80843 -1.17581,-1.03769 -2.22409,-2.21562 -3.11706,-3.50943 6.08092,0.96097 12.65397,1.46764 19.43233,1.46764 3.88964,0 7.70572,-0.17515 11.40909,-0.49821 -0.64902,0.8255 -1.36207,1.59941 -2.13624,2.30796 z m 3.38084,-4.08252 c -4.07987,0.40429 -8.32379,0.6096 -12.65343,0.6096 -7.22418,0 -14.1978,-0.58287 -20.57373,-1.67878 -1.0467,-1.964 -1.75869,-4.13041 -2.06613,-6.42435 6.04863,0.41963 12.34307,0.63553 18.76504,0.63553 6.58283,0 13.02649,-0.22728 19.21298,-0.66649 -0.36115,2.72998 -1.29646,5.28056 -2.68473,7.52449 z m 2.83502,-9.20062 c -6.22909,0.44794 -12.72646,0.67971 -19.36327,0.67971 -6.47991,0 -12.82436,-0.22383 -18.9185,-0.64928 -0.0132,-0.2921 -0.0222,-0.58526 -0.0222,-0.88054 0,-2.5527 0.50589,-4.98872 1.41605,-7.2181 5.41523,-1.13929 11.36174,-1.74677 17.52468,-1.74677 6.34391,0 12.46293,0.64187 18.01019,1.85102 0.88344,2.20107 1.37477,4.60031 1.37477,7.11359 -2.6e-4,0.28522 -0.009,0.56806 -0.0217,0.85037 z"
       class="st0"
       inkscape:connector-curvature="0"
       style="fill:#464646;stroke-width:0.26458332" />
    <g
       transform="translate(-199.55553,-223.84734)"
       id="g4520">
      <path
         style="fill:#464646;stroke-width:0.26458332"
         inkscape:connector-curvature="0"
         class="st0"
         d="m -130.65737,-36.0477 c 0,-2.332302 -0.39291,-4.571735 -1.10675,-6.662472 0.002,2.64e-4 0.004,5.29e-4 0.006,7.93e-4 -0.0167,-0.04921 -0.0376,-0.09631 -0.0545,-0.145256 -0.10055,-0.287337 -0.2077,-0.5715 -0.32042,-0.852752 -0.0402,-0.101335 -0.0781,-0.203994 -0.11985,-0.304271 -0.14552,-0.346869 -0.29977,-0.688975 -0.46329,-1.025789 -0.014,-0.02857 -0.0254,-0.05874 -0.0394,-0.08731 -0.002,0 -0.004,0 -0.005,-2.64e-4 -1.97088,-4.011878 -5.20753,-7.286096 -9.18845,-9.309365 0.007,0 0.0143,0 0.0217,2.65e-4 -0.0907,-0.04604 -0.1852,-0.08599 -0.27675,-0.130705 -0.12753,-0.06271 -0.25665,-0.122237 -0.3855,-0.182297 -0.19235,-0.08943 -0.3847,-0.178859 -0.58023,-0.262467 -0.15663,-0.06694 -0.31591,-0.128323 -0.4744,-0.191558 -0.177,-0.07038 -0.35242,-0.143934 -0.53207,-0.209815 -0.32412,-0.118798 -0.6522,-0.229658 -0.98399,-0.332581 -0.15028,-0.04657 -0.30348,-0.08599 -0.45508,-0.129117 -0.20691,-0.059 -0.41381,-0.118269 -0.62336,-0.170656 -0.1651,-0.04154 -0.33232,-0.07779 -0.499,-0.115094 -0.20003,-0.04498 -0.40058,-0.08863 -0.60299,-0.127529 -0.17171,-0.03307 -0.34422,-0.0635 -0.51753,-0.09234 -0.20214,-0.03387 -0.4056,-0.06403 -0.60986,-0.09181 -0.1741,-0.02381 -0.34846,-0.04736 -0.52387,-0.06668 -0.21273,-0.02355 -0.42704,-0.04075 -0.64135,-0.05768 -0.16854,-0.01323 -0.33603,-0.02937 -0.50562,-0.03836 -0.27067,-0.01482 -0.54346,-0.02037 -0.81677,-0.02434 -0.10663,-0.0016 -0.21167,-0.0095 -0.31856,-0.0095 -0.70432,0 -1.39965,0.03731 -2.08545,0.106097 -0.0526,0.0053 -0.10451,0.01323 -0.15716,0.01879 -0.28496,0.03096 -0.56885,0.06562 -0.85011,0.10795 -0.078,0.01164 -0.15504,0.02646 -0.23309,0.03916 -0.2548,0.04127 -0.50853,0.0852 -0.76015,0.135731 -0.0894,0.01799 -0.17754,0.03889 -0.2667,0.05794 -0.23813,0.05107 -0.47519,0.104511 -0.71014,0.164042 -0.0947,0.02381 -0.18839,0.05027 -0.28284,0.07541 -0.22701,0.06085 -0.45323,0.12409 -0.67707,0.192352 -0.0966,0.02937 -0.19209,0.06085 -0.28813,0.09155 -0.21961,0.07064 -0.43789,0.143669 -0.65405,0.221192 -0.0958,0.0344 -0.19077,0.07011 -0.28575,0.105568 -0.21431,0.0807 -0.4273,0.164307 -0.63818,0.251619 -0.0926,0.03836 -0.18494,0.07752 -0.27702,0.117211 -0.21087,0.09102 -0.41989,0.185737 -0.62732,0.283633 -0.0881,0.0418 -0.17622,0.08361 -0.26379,0.126471 -0.20955,0.102658 -0.41672,0.209285 -0.62257,0.318823 -0.0812,0.04313 -0.16245,0.08599 -0.24288,0.130439 -0.21141,0.116152 -0.41963,0.236802 -0.62654,0.360098 -0.0709,0.04233 -0.14234,0.08387 -0.21272,0.127 -0.21696,0.133086 -0.43048,0.270933 -0.64215,0.411692 -0.0566,0.03757 -0.11403,0.07408 -0.17039,0.112448 -0.23072,0.156633 -0.45746,0.318823 -0.6813,0.484452 -0.0341,0.02513 -0.0688,0.04921 -0.10266,0.07461 -0.54292,0.406929 -1.0668,0.837407 -1.5666,1.294607 0.003,-0.0011 0.007,-0.0019 0.0101,-0.0029 -2.71225,2.482056 -4.75589,5.680604 -5.83724,9.295077 -5.3e-4,2.65e-4 -0.001,2.65e-4 -0.002,5.29e-4 -0.037,0.122767 -0.0688,0.24765 -0.10345,0.371211 -0.0407,0.145785 -0.0844,0.290512 -0.12197,0.43762 -0.0759,0.296598 -0.14446,0.595842 -0.20717,0.897203 -0.0185,0.08943 -0.0339,0.180181 -0.0511,0.269875 -0.0429,0.221456 -0.0836,0.44397 -0.11933,0.668072 -0.0198,0.12409 -0.0368,0.249238 -0.0545,0.374121 -0.0146,0.104246 -0.0325,0.207434 -0.0455,0.312473 0.002,-7.94e-4 0.004,-0.0016 0.006,-0.0024 -0.10636,0.848783 -0.16748,1.71159 -0.16748,2.589212 0,3.319198 0.78899,6.452659 2.18255,9.230254 -0.003,-2.64e-4 -0.006,-2.64e-4 -0.008,-5.29e-4 0.0392,0.07779 0.0849,0.151077 0.12515,0.228336 0.15213,0.293952 0.31088,0.583671 0.47651,0.869156 0.0492,0.08467 0.0963,0.170921 0.14658,0.255058 0.22569,0.376502 0.46382,0.744273 0.712,1.104636 0.0114,0.0164 0.0209,0.03387 0.0323,0.05027 0.001,0 0.002,-2.65e-4 0.003,-2.65e-4 2.16773,3.124464 5.17578,5.619485 8.69871,7.159889 -0.003,0 -0.005,2.65e-4 -0.008,2.65e-4 0.0281,0.01243 0.0572,0.02275 0.0855,0.03492 0.20717,0.08943 0.41725,0.173038 0.62786,0.255852 0.10742,0.04233 0.21352,0.08652 0.32173,0.127 0.21352,0.0799 0.43022,0.153458 0.64717,0.226483 0.10954,0.03678 0.21802,0.07594 0.32862,0.111125 0.2159,0.06853 0.43471,0.130175 0.65378,0.191823 0.1151,0.03228 0.22887,0.06747 0.34475,0.0979 0.21617,0.05689 0.43551,0.106363 0.65432,0.156104 0.12118,0.02778 0.24156,0.05847 0.36354,0.08387 0.21643,0.04524 0.4355,0.08255 0.65431,0.120915 0.12727,0.02223 0.25321,0.04815 0.38127,0.068 0.22119,0.0344 0.44502,0.06032 0.6686,0.08784 0.12753,0.01561 0.254,0.03519 0.38232,0.04868 0.2413,0.02487 0.48498,0.04075 0.72866,0.05715 0.11245,0.0077 0.22358,0.01984 0.33655,0.02566 0.35719,0.01852 0.71702,0.02805 1.07897,0.02805 0,0 0,0 0,0 0,0 0,0 0,0 0.32041,0 0.63871,-0.0095 0.95568,-0.02408 0.0952,-0.0042 0.18971,-0.01058 0.28469,-0.0164 0.23125,-0.01376 0.46143,-0.03122 0.69056,-0.05239 0.0958,-0.009 0.19156,-0.0172 0.28708,-0.02752 0.29157,-0.03122 0.58155,-0.0672 0.86915,-0.110332 0.0201,-0.0029 0.0408,-0.005 0.0609,-0.0082 0.30453,-0.04657 0.60589,-0.101864 0.90593,-0.16166 0.0945,-0.01878 0.18785,-0.03969 0.28178,-0.0598 0.21564,-0.04604 0.42995,-0.09551 0.64294,-0.148431 0.0955,-0.02381 0.19129,-0.0471 0.28628,-0.07197 0.26379,-0.06959 0.52572,-0.143404 0.78528,-0.223044 0.0312,-0.0095 0.0632,-0.01773 0.0945,-0.02752 0.28813,-0.08996 0.57282,-0.18759 0.8554,-0.289454 0.0847,-0.03043 0.16827,-0.06297 0.25241,-0.09446 0.20928,-0.07858 0.41672,-0.160337 0.62256,-0.245533 0.0833,-0.0344 0.16695,-0.06879 0.24977,-0.104246 0.25929,-0.111389 0.51647,-0.226748 0.7702,-0.348191 0.0169,-0.0082 0.0344,-0.01535 0.0513,-0.02355 0.27675,-0.13335 0.54928,-0.274109 0.81889,-0.419365 0.0606,-0.03254 0.12012,-0.06641 0.18018,-0.09975 0.2159,-0.119062 0.42915,-0.241829 0.64029,-0.368035 0.059,-0.03545 0.11827,-0.07064 0.177,-0.106627 0.27173,-0.166688 0.54108,-0.337079 0.80434,-0.515673 -0.002,2.64e-4 -0.003,5.29e-4 -0.005,5.29e-4 2.76304,-1.875102 5.04533,-4.40399 6.62807,-7.363619 0.001,-2.64e-4 0.003,-2.64e-4 0.004,-5.29e-4 0.086,-0.160073 0.1643,-0.324644 0.24579,-0.487362 0.0542,-0.10848 0.11139,-0.215371 0.16378,-0.324909 0.0802,-0.167746 0.15452,-0.339196 0.23045,-0.509587 0.0611,-0.13679 0.12462,-0.272256 0.18283,-0.410898 0.006,-0.01297 0.0116,-0.02567 0.0172,-0.03863 -8e-4,2.64e-4 -0.001,2.64e-4 -0.002,5.29e-4 1.01918,-2.443956 1.58459,-5.12445 1.58459,-7.937765 z m -30.8401,-16.196468 c 4.8641,-1.203854 9.76339,-1.999986 15.68979,-2.167202 4.88898,1.458383 8.967,4.81621 11.36756,9.217554 -11.88191,-0.392377 -26.40859,1.303867 -34.9496,2.907506 1.43166,-4.145227 4.24629,-7.648575 7.89225,-9.957858 z m 17.83398,33.77856 c -4.50533,0.549275 -8.44286,0.91096 -11.77211,1.12051 -4.48521,-0.997214 -8.38279,-3.568171 -11.08048,-7.104591 1.21734,-0.09287 2.43734,-0.165629 3.65733,-0.177007 3.77957,-0.0291 7.52581,0.261938 11.30935,0.103982 3.79624,-0.16219 7.65466,-0.515673 11.38,-0.952236 1.75895,-0.204523 3.51737,-0.417248 5.2742,-0.636323 -2.0529,3.371057 -5.1181,6.059223 -8.76829,7.645665 z m 9.62342,-9.213321 c -2.16535,0.526521 -4.33414,1.042988 -6.57436,1.189302 -5.22235,0.341048 -10.46957,0.141288 -15.70011,0.103981 -3.89229,-0.0254 -7.79066,-0.06059 -11.67633,-0.307975 -1.55575,-2.768864 -2.44713,-5.958416 -2.44713,-9.354079 0,-1.08241 0.0947,-2.142595 0.26802,-3.176852 3.68565,-1.317889 9.27074,-2.812785 17.27729,-3.800739 7.81077,-0.962819 14.50049,-0.604838 19.48815,0.07355 0.83106,2.143654 1.29196,4.4704 1.29196,6.904037 0,2.999052 -0.694,5.838561 -1.92749,8.368771 z"
         id="path4110" />
      <path
         style="fill:#464646;stroke-width:0.26458332"
         inkscape:connector-curvature="0"
         class="st0"
         d="m -135.87707,-34.885914 c -1.17104,-0.275961 -2.36379,-0.367242 -3.5478,-0.274109 -0.60034,0.04736 -1.19856,0.141817 -1.79043,0.283898 -1.04616,0.250825 -3.09616,0.707761 -3.3864,1.977232 -0.32994,1.443831 6.08224,0.776023 6.87652,0.690827 1.0115,-0.108744 2.01268,-0.414338 2.90883,-0.899054 0.32279,-0.174625 0.89773,-0.506942 0.75432,-0.962025 -0.1733,-0.550598 -1.33535,-0.703792 -1.81504,-0.816769 z"
         id="path4112" />
    </g>
    <path
       id="path4130"
       d="m -269.45307,-259.89637 c 0,-11.38713 -9.23105,-20.61792 -20.61819,-20.61792 -2.6e-4,0 -5.3e-4,0 -7.9e-4,0 -2.6e-4,0 -5.3e-4,0 -8e-4,0 -3.497,0 -6.7892,0.87392 -9.6745,2.41089 -6.50899,3.46657 -10.94156,10.31795 -10.94156,18.20703 0,0.1487 0.008,0.29554 0.0111,0.44344 0.004,0.1704 0.005,0.34132 0.013,0.51065 0.008,0.16828 0.0209,0.33496 0.0328,0.50192 0.0111,0.15875 0.0214,0.3175 0.0362,0.47492 0.0156,0.16696 0.0349,0.33285 0.0545,0.49874 0.0183,0.15558 0.0373,0.31115 0.059,0.46567 0.0233,0.16457 0.0484,0.32861 0.0754,0.49186 0.0254,0.15452 0.0534,0.30824 0.0825,0.4617 0.0302,0.16007 0.0606,0.31988 0.0945,0.47837 0.0336,0.15769 0.0712,0.31379 0.10848,0.4699 0.0362,0.15187 0.0706,0.30453 0.11034,0.45508 0.0471,0.17886 0.0995,0.35533 0.15105,0.53234 0.063,0.2159 0.12913,0.43021 0.19871,0.6432 0.0635,0.19341 0.12649,0.38709 0.19553,0.57785 0.0487,0.13494 0.10214,0.2675 0.15346,0.40085 0.0617,0.15981 0.12303,0.31988 0.18839,0.47783 0.0558,0.13494 0.11481,0.26829 0.17356,0.40164 0.0677,0.15425 0.13653,0.30798 0.20795,0.46011 0.0614,0.13071 0.12384,0.26035 0.18813,0.38947 0.0765,0.15425 0.15504,0.30691 0.23495,0.45905 0.0646,0.1225 0.12886,0.24474 0.19579,0.36566 0.09,0.16298 0.18389,0.32332 0.27808,0.48339 0.0624,0.10583 0.12303,0.21272 0.18733,0.3175 0.13123,0.21378 0.26723,0.42439 0.4056,0.63288 0.0318,0.0479 0.0617,0.0974 0.0939,0.14499 0.17198,0.25427 0.35031,0.50351 0.53314,0.74957 0.0577,0.0775 0.11827,0.15293 0.17674,0.22966 0.13097,0.17092 0.26273,0.34078 0.39873,0.50747 0.0701,0.086 0.14208,0.17012 0.21351,0.25479 0.13098,0.15558 0.26379,0.3093 0.39926,0.46091 0.0741,0.0828 0.1487,0.16457 0.2241,0.24606 0.14155,0.15319 0.28549,0.30374 0.43154,0.4527 0.0717,0.073 0.14315,0.14658 0.2159,0.21855 0.1651,0.16325 0.33365,0.32279 0.50402,0.48048 0.0566,0.0524 0.11219,0.1061 0.16934,0.15769 0.47017,0.42545 0.95991,0.82947 1.46791,1.21047 0.0315,0.0236 0.064,0.046 0.0958,0.0696 0.22039,0.16325 0.44372,0.32226 0.67073,0.47678 0.0609,0.0415 0.12275,0.0812 0.18415,0.12224 0.20266,0.13494 0.40745,0.26644 0.61514,0.39423 0.0691,0.0426 0.13865,0.0844 0.2085,0.12621 0.20875,0.12514 0.41989,0.24632 0.63342,0.36432 0.0648,0.0357 0.12936,0.072 0.19471,0.10716 0.23708,0.12753 0.47706,0.25003 0.71941,0.36857 0.0415,0.0204 0.0825,0.0418 0.12435,0.0619 0.58844,0.28231 1.19196,0.53816 1.81001,0.76464 0.0164,0.006 0.0333,0.0114 0.0497,0.0172 0.28153,0.10239 0.56596,0.19844 0.85329,0.28866 0.0667,0.0212 0.13441,0.0402 0.20135,0.0606 0.23972,0.0728 0.48102,0.14155 0.72443,0.20558 0.0847,0.0222 0.1696,0.0437 0.25452,0.0648 0.1077,0.027 0.21431,0.0572 0.3228,0.0823 0.12515,0.0302 0.25056,0.0532 0.3757,0.0788 0.0894,0.0191 0.1786,0.0384 0.26856,0.0564 0.01,0.002 0.0196,0.004 0.0294,0.006 0.0124,0.004 0.0209,0.008 0.0333,0.008 0.2368,0.05 0.47387,0.0916 0.71887,0.12885 0.0164,0.003 0.0331,0.003 0.0495,0.005 1.04828,0.16431 2.12222,0.25135 3.21654,0.25135 3.53668,0 6.86461,-0.89164 9.77318,-2.46062 0,2.6e-4 0,5.3e-4 0,5.3e-4 v 0.004 c 0.85963,-0.46382 1.67958,-0.99034 2.46036,-1.56739 0.037,-0.0275 0.0757,-0.0532 0.11271,-0.081 0.19103,-0.14314 0.37703,-0.29263 0.56277,-0.44238 0.0802,-0.0646 0.16219,-0.12674 0.2413,-0.19236 0.16457,-0.13652 0.32464,-0.27833 0.48472,-0.41989 0.0955,-0.0844 0.19235,-0.16695 0.28628,-0.25294 0.14922,-0.13679 0.29448,-0.27808 0.43974,-0.41937 0.0982,-0.0955 0.19737,-0.18997 0.29368,-0.28734 0.14155,-0.14287 0.27914,-0.28971 0.41645,-0.43682 0.0926,-0.0992 0.18574,-0.19791 0.27623,-0.29871 0.13917,-0.15505 0.27464,-0.31327 0.40931,-0.47255 0.0804,-0.0953 0.16087,-0.19024 0.23971,-0.28708 0.0577,-0.0709 0.1188,-0.13864 0.17569,-0.21034 h -0.0106 c 2.78659,-3.51473 4.45558,-7.95761 4.45558,-12.79287 z m -26.1411,-7.4803 c -1.69519,0.71385 -2.61382,1.92961 -3.29301,3.60151 -0.34422,0.84746 -0.67177,1.72085 -1.24617,2.43258 -1.49913,1.85764 -4.10131,1.28376 -5.87984,0.17806 -1.80975,-1.125 -0.049,-5.77215 0.48922,-7.08818 0.61145,-1.49543 2.39791,-2.7395 3.5515,-3.78275 1.45309,-1.31445 3.03317,-2.82654 5.02972,-3.2168 1.58353,-0.3093 3.225,0.21246 4.74451,0.61092 0.79401,0.20823 1.46949,0.42704 2.28388,0.29236 1.41103,-0.23336 2.76384,-0.6305 4.20159,-0.65881 2.49475,-0.049 4.10897,1.76107 3.81555,3.96214 -0.29342,2.20106 -3.22844,3.71766 -6.40794,2.79294 -3.18003,-0.92446 -3.57135,-0.68924 -7.28901,0.87603 z m 19.99774,20.01653 c -2.54238,-0.0503 -3.92562,1.84706 -4.45056,3.78725 -2.62202,1.61607 -5.65996,2.61778 -8.91354,2.80458 0.64902,-0.45323 1.22581,-0.99192 1.67772,-1.56475 1.76001,-2.23149 1.05674,-4.37912 -0.6559,-6.38228 -1.81266,-2.12883 -3.15304,-1.8452 -4.02194,-4.59343 -0.9824,-3.10647 -0.74612,-6.12061 1.88966,-8.19547 3.08001,-2.42464 7.66154,-3.12103 10.24731,-0.44133 0.29925,0.31195 0.93133,1.05596 1.39277,0.56542 1.32239,-1.40547 3.51843,-2.13995 5.40411,-1.42558 1.00886,0.38206 1.66212,1.084 2.09365,1.93411 0.0164,0.32305 0.0249,0.64796 0.0249,0.97499 0,4.79108 -1.77139,9.17337 -4.68815,12.53649 z"
       class="st0"
       inkscape:connector-curvature="0"
       style="fill:#464646;stroke-width:0.26458332" />
    <g
       transform="translate(-199.55553,-223.84734)"
       id="g4511">
      <path
         style="fill:#464646;stroke-width:0.26458332"
         inkscape:connector-curvature="0"
         class="st0"
         d="m -209.53231,-124.1386 c -3.28533,0 -6.38889,0.77205 -9.14532,2.13889 -0.001,5.3e-4 -0.003,-0.001 -0.004,-5.3e-4 -0.0712,0.0352 -0.1397,0.0744 -0.21035,0.11033 -0.19605,0.10001 -0.39184,0.20029 -0.5842,0.30639 -0.11826,0.0651 -0.23362,0.13414 -0.3503,0.20135 -0.16193,0.0934 -0.32438,0.186 -0.4834,0.28363 -0.13679,0.0839 -0.2704,0.17251 -0.40481,0.25956 -0.13732,0.0889 -0.27543,0.17568 -0.41037,0.26775 -0.14499,0.099 -0.28628,0.20268 -0.42889,0.30507 -0.12171,0.0876 -0.24474,0.17277 -0.36433,0.26299 -0.14314,0.10795 -0.28231,0.22067 -0.42254,0.33206 -0.11562,0.0918 -0.23283,0.18124 -0.34634,0.27543 -0.13044,0.10821 -0.25664,0.22145 -0.38417,0.33284 -0.11907,0.10399 -0.24025,0.20559 -0.35693,0.31221 -0.1053,0.0961 -0.20611,0.19685 -0.30929,0.29501 -0.13415,0.1278 -0.27014,0.25347 -0.40085,0.38471 -0.0579,0.0582 -0.11271,0.11932 -0.16986,0.17806 -3.32555,3.41868 -5.4737,7.98486 -5.79464,13.04978 -0.002,-0.002 -0.003,-0.004 -0.004,-0.006 -0.004,0.0542 -0.005,0.10953 -0.008,0.16404 -0.004,0.0767 -0.008,0.15372 -0.0111,0.23071 -0.0124,0.2794 -0.0201,0.55986 -0.0214,0.84191 0,0.0307 -0.002,0.0608 -0.002,0.0918 0,0.11324 0.007,0.22463 0.008,0.33734 0.003,0.21273 0.006,0.42545 0.0161,0.63659 0.007,0.15901 0.0206,0.31618 0.0317,0.4744 0.0119,0.17012 0.0228,0.34052 0.0386,0.50958 0.0156,0.16484 0.0354,0.32835 0.0548,0.49186 0.0188,0.15928 0.0381,0.31856 0.0606,0.47678 0.0238,0.16696 0.0503,0.33285 0.078,0.49821 0.0254,0.152405 0.0524,0.304011 0.0812,0.455088 0.0317,0.167217 0.0651,0.333639 0.1008,0.499269 0.0317,0.146579 0.0661,0.291835 0.10081,0.437091 0.04,0.166952 0.0799,0.334169 0.12382,0.499534 0.0371,0.138641 0.0775,0.27596 0.11748,0.413279 0.0487,0.169069 0.0963,0.338402 0.14922,0.505619 0.0378,0.119062 0.0802,0.236272 0.11986,0.354541 0.12912,0.383117 0.26855,0.761471 0.4191,1.134004 0.0291,0.07223 0.0558,0.145521 0.0857,0.217488 0.0738,0.176477 0.15345,0.349514 0.23177,0.52361 0.05,0.110596 0.0982,0.22225 0.15002,0.331788 0.0794,0.16801 0.16298,0.33311 0.24686,0.498475 0.0566,0.111918 0.11271,0.223837 0.17118,0.334433 0.0865,0.163513 0.17595,0.324908 0.2667,0.485775 0.0609,0.107685 0.12224,0.215106 0.18494,0.321733 0.0945,0.160602 0.19077,0.319882 0.28946,0.477573 0.0635,0.1016 0.12859,0.201877 0.19367,0.302154 0.10372,0.159544 0.20797,0.318559 0.31618,0.475192 0.0622,0.08996 0.12647,0.178329 0.18997,0.267229 0.11642,0.163248 0.23283,0.326496 0.35375,0.48604 0.0442,0.05847 0.0907,0.114829 0.13573,0.172773 0.45508,0.58711 0.94112,1.148556 1.45574,1.68275 0.0516,0.05345 0.10133,0.108214 0.15346,0.160866 0.1471,0.14949 0.29845,0.295011 0.45032,0.440002 0.0699,0.06668 0.1389,0.134144 0.20981,0.200025 0.14949,0.138907 0.30163,0.274373 0.45509,0.408782 0.0759,0.06641 0.15187,0.132821 0.22886,0.198173 0.15584,0.132556 0.31327,0.262466 0.47281,0.39026 0.0759,0.06085 0.15266,0.12065 0.22939,0.180181 0.1659,0.128852 0.33259,0.256382 0.50245,0.380471 0.0677,0.04948 0.13679,0.09737 0.20531,0.14605 0.18283,0.130175 0.36645,0.259556 0.55378,0.383911 0.0336,0.02223 0.0683,0.04313 0.10213,0.06535 0.69744,0.456935 1.42345,0.873654 2.17619,1.244864 0.004,0.0021 0.008,0.0042 0.0122,0.0063 0.22277,0.109802 0.44899,0.213254 0.67627,0.315119 0.0542,0.02434 0.10795,0.04974 0.16245,0.07355 0.21617,0.09446 0.43471,0.18415 0.65458,0.271463 0.0656,0.02593 0.13097,0.05212 0.19659,0.07752 0.22013,0.08467 0.44185,0.165364 0.66543,0.242622 0.0632,0.02196 0.127,0.04313 0.19076,0.06456 0.23151,0.07752 0.46408,0.151871 0.69929,0.221191 0.0471,0.01402 0.0947,0.02672 0.14182,0.04022 1.81266,0.521229 3.7256,0.806186 5.70601,0.806186 11.38687,0 20.61792,-9.231048 20.61792,-20.617914 0,-11.38687 -9.23052,-20.61792 -20.6174,-20.61792 z m 0,39.780895 c -0.0704,0 -0.1397,-0.0045 -0.21007,-0.0053 0.71384,-0.610658 1.24883,-1.429808 1.45891,-2.380985 0.80301,-3.636169 -3.2811,-4.88659 -5.8129,-6.142038 -0.50588,-0.250825 -0.65087,-0.584464 -0.2405,-0.992716 0.23495,-0.233627 0.5535,-0.357188 0.8509,-0.503238 1.41261,-0.693737 2.2299,-2.575454 2.47464,-4.04151 0.12568,-0.752475 0.0945,-1.517121 0.16801,-2.274098 0.0505,-0.51805 0.0744,-1.18163 0.5297,-1.52453 0.30083,-0.22675 0.71094,-0.23759 1.08479,-0.19182 0.34713,0.0423 0.71173,0.13864 0.9443,0.39952 0.28072,0.31512 0.29448,0.77629 0.35269,1.19433 0.0725,0.51938 0.24103,1.033729 0.55351,1.454946 0.72522,0.977106 1.60681,0.912548 2.47517,0.207433 0.51515,-0.418306 1.16047,-0.766233 1.81505,-0.657225 0.70829,0.118004 1.5531,0.911754 2.24128,0.321998 0.53049,-0.454819 0.45985,-1.426632 0.29792,-2.027242 -0.11694,-0.43365 -0.60616,-1.17977 -0.43127,-1.63486 0.0757,-0.19711 0.35507,-0.22675 1.025,0.0521 0.52414,0.21828 1.06547,0.40296 1.63962,0.40692 1.8841,0.0127 2.90909,-2.29526 2.62864,-3.93514 -0.5387,-3.14907 -5.00063,-3.80947 -7.4639,-2.77019 -0.24448,0.10319 -0.4908,0.22384 -0.75591,0.2331 -0.79905,0.0275 -1.05252,-1.22 -1.47215,-1.70709 -0.35057,-0.40693 -0.74136,-0.78158 -1.19671,-1.07024 -1.25042,-0.7927 -2.78421,-1.15015 -4.23756,-0.94404 -1.29249,0.18336 -2.51302,0.78952 -3.46684,1.6764 -0.89323,0.83053 -1.64941,1.80102 -1.51474,3.08504 0.0222,0.21114 0.0624,0.42757 0.008,0.63315 -0.24765,0.94007 -2.96466,0.51303 -3.69147,0.64585 -1.94098,0.35428 -3.63749,1.36631 -4.4405,3.18294 -0.57706,1.30519 -1.04299,4.572264 -3.1279,3.35227 -0.68316,-0.39979 -1.09935,-1.18454 -1.47215,-1.85182 -0.0484,-0.0868 -0.0958,-0.1741 -0.14367,-0.26141 -0.0204,-0.36195 -0.0333,-0.72575 -0.0333,-1.09273 0,-4.68339 1.69121,-8.97758 4.49183,-12.30974 0.39687,0.4527 0.9861,0.6649 1.80366,0.47202 1.31234,-0.30983 2.54133,-1.0668 3.2893,-2.20133 0.48181,-0.73078 0.76571,-1.60153 0.80196,-2.47677 0.002,-0.0553 -0.0114,-0.24871 -0.0362,-0.49186 2.64027,-1.37345 5.63589,-2.15503 8.81195,-2.15503 4.2709,0 8.21901,1.40547 11.40856,3.77666 -0.78713,0.0405 -1.55257,0.34819 -2.04337,0.99113 -1.16549,1.52691 0.44555,3.66474 1.58512,4.66831 0.46698,0.41116 1.02552,0.73951 1.63935,0.84085 1.17237,0.19341 2.86941,-0.86546 3.10251,-2.09233 2.1836,3.11176 3.47054,6.89663 3.47054,10.97836 5.3e-4,10.56534 -8.59579,19.161917 -19.16219,19.161917 z"
         id="path4144" />
      <path
         style="fill:#464646;stroke-width:0.26458332"
         inkscape:connector-curvature="0"
         class="st0"
         d="m -198.67486,-96.829634 c -0.0725,0.131233 -0.12965,0.271727 -0.16828,0.420952 -0.29686,1.145381 -0.0865,3.892285 1.69863,3.491177 1.64174,-0.368829 3.5433,-2.656681 2.43072,-4.282546 -0.90302,-1.319477 -3.22606,-0.959114 -3.96107,0.370417 z"
         id="path4146" />
    </g>
  </g>
  <style
     id="style3958"
     type="text/css">
	.st0{fill:#464646;}
</style>
</svg>
