<?xml version="1.0" encoding="UTF-8" standalone="no"?>
<!-- Created with Inkscape (http://www.inkscape.org/) -->

<svg
   xmlns:dc="http://purl.org/dc/elements/1.1/"
   xmlns:cc="http://creativecommons.org/ns#"
   xmlns:rdf="http://www.w3.org/1999/02/22-rdf-syntax-ns#"
   xmlns:svg="http://www.w3.org/2000/svg"
   xmlns="http://www.w3.org/2000/svg"
   xmlns:sodipodi="http://sodipodi.sourceforge.net/DTD/sodipodi-0.dtd"
   xmlns:inkscape="http://www.inkscape.org/namespaces/inkscape"
   width="53.124813mm"
   height="52.99918mm"
   viewBox="0 0 53.124813 52.999181"
   version="1.1"
   id="svg8"
   sodipodi:docname="sun.svg"
   inkscape:version="0.92.5 (2060ec1f9f, 2020-04-08)">
  <defs
     id="defs2">
	
	
	
	
	
	
	
	
	
	
	
	
	
	
	
	

	
	
	
	
	
	
	
	
	

	
	
	
	
	
	

	
	
	
	
	
	

	
	
	
	
	
	
	
	
	

	
	
	
	
	
	
	

	
	
	
	
	
	
	

	
	
	
	
	
	
	
	
	

	
	
	
	
	
	
	

	
	
	
	
	
	

	
	
	
	
	
	
</defs>
  <sodipodi:namedview
     id="base"
     pagecolor="#ffffff"
     bordercolor="#666666"
     borderopacity="1.0"
     inkscape:pageopacity="0.0"
     inkscape:pageshadow="2"
     inkscape:zoom="1.4"
     inkscape:cx="171.43341"
     inkscape:cy="-24.963644"
     inkscape:document-units="mm"
     inkscape:current-layer="layer1"
     showgrid="false"
     inkscape:window-width="3072"
     inkscape:window-height="1883"
     inkscape:window-x="0"
     inkscape:window-y="0"
     inkscape:window-maximized="1"
     fit-margin-top="0"
     fit-margin-left="0"
     fit-margin-right="0"
     fit-margin-bottom="0" />
  <metadata
     id="metadata5">
    <rdf:RDF>
      <cc:Work
         rdf:about="">
        <dc:format>image/svg+xml</dc:format>
        <dc:type
           rdf:resource="http://purl.org/dc/dcmitype/StillImage" />
        <dc:title></dc:title>
      </cc:Work>
    </rdf:RDF>
  </metadata>
  <g
     inkscape:label="Layer 1"
     inkscape:groupmode="layer"
     id="layer1"
     transform="translate(236.09524,197.02742)">
    <path
       id="path3960"
       d="m -209.52172,-191.16133 c -11.38714,0 -20.61792,9.23104 -20.61792,20.61792 0,11.38687 9.23104,20.61792 20.61792,20.61792 11.38687,0 20.61792,-9.23105 20.61792,-20.61792 0,-11.38688 -9.23105,-20.61792 -20.61792,-20.61792 z m 0,39.57293 c -10.45184,0 -18.95502,-8.50318 -18.95502,-18.95475 0,-10.45183 8.50318,-18.95501 18.95502,-18.95501 10.45183,0 18.95501,8.50318 18.95501,18.95501 -2.6e-4,10.45157 -8.50318,18.95475 -18.95501,18.95475 z"
       class="st0"
       inkscape:connector-curvature="0"
       style="fill:#464646;stroke-width:0.26458332" />
    <path
       id="path3962"
       d="m -183.64785,-170.08145 -2.58816,-2.24367 c -0.12065,-0.10451 -0.13838,-0.28495 -0.0405,-0.41089 l 2.13783,-2.74717 c 0.3818,-0.49081 0.50747,-1.11681 0.34555,-1.71715 -0.16193,-0.60007 -0.58552,-1.07738 -1.16205,-1.30969 l -3.18347,-1.28137 c -0.14869,-0.0598 -0.22383,-0.22516 -0.17145,-0.37651 l 1.13559,-3.28665 c 0.20347,-0.58843 0.12065,-1.22211 -0.22727,-1.73858 -0.34793,-0.51646 -0.90435,-0.83105 -1.52585,-0.86333 l -3.43509,-0.17913 c -0.16034,-0.008 -0.28549,-0.14102 -0.28469,-0.30109 l 0.0153,-3.4716 c 0.003,-0.62336 -0.28045,-1.19671 -0.77708,-1.57321 -0.49688,-0.3765 -1.12501,-0.49451 -1.72455,-0.32332 l -3.31735,0.94588 c -0.15266,0.0442 -0.31512,-0.0402 -0.36671,-0.19288 l -1.10278,-3.28374 c -0.19897,-0.59108 -0.65247,-1.0422 -1.2446,-1.23825 -0.59082,-0.19579 -1.22423,-0.10372 -1.7362,0.25109 l -2.84136,1.97326 c -0.13282,0.0921 -0.31221,0.0632 -0.40931,-0.0643 l -2.09894,-2.74294 c -0.37465,-0.49054 -0.94192,-0.77073 -1.55839,-0.77073 -0.006,0 -0.0119,0 -0.018,2.6e-4 -0.62335,0.005 -1.193,0.29634 -1.56315,0.79825 l -2.05793,2.79162 c -0.095,0.12965 -0.27411,0.16087 -0.40799,0.0714 l -2.86438,-1.91082 c -0.51805,-0.34581 -1.15226,-0.42545 -1.74016,-0.21908 -0.58791,0.20638 -1.03267,0.66543 -1.22053,1.25942 l -1.04986,3.31285 c -0.0487,0.15293 -0.20717,0.23997 -0.36301,0.19949 l -3.32105,-0.8763 c -0.60299,-0.15928 -1.2274,-0.0291 -1.71583,0.35587 -0.48895,0.38497 -0.76173,0.96255 -0.74824,1.58432 l 0.0751,3.47901 c 0.004,0.16007 -0.11853,0.29422 -0.27781,0.30586 l -3.41894,0.25003 c -0.61966,0.0455 -1.16814,0.37068 -1.50522,0.89217 -0.33734,0.5215 -0.40852,1.15544 -0.19579,1.73911 l 1.19406,3.26972 c 0.0545,0.14975 -0.0169,0.31618 -0.16404,0.37915 l -3.14589,1.34858 c -0.57018,0.24447 -0.98267,0.72972 -1.13216,1.33165 -0.14948,0.60166 -0.0119,1.2237 0.37757,1.70577 l 2.18519,2.70774 c 0.10001,0.12356 0.086,0.30374 -0.0317,0.41064 l -2.53259,2.30028 c -0.45853,0.41593 -0.68977,1.00833 -0.6358,1.62481 0.054,0.61674 0.38524,1.15967 0.90911,1.4896 l 2.94005,1.85209 c 0.13362,0.0841 0.17912,0.25902 0.10319,0.39767 l -1.6428,3.00302 c -0.29633,0.54213 -0.322,1.1766 -0.0706,1.74095 0.25135,0.56463 0.74057,0.9697 1.34196,1.11178 l 3.37503,0.79666 c 0.15346,0.0362 0.25294,0.18654 0.22701,0.34211 l -0.57123,3.37926 c -0.10319,0.60854 0.0791,1.21655 0.50059,1.66767 0.42148,0.45138 1.01679,0.67548 1.6293,0.61357 l 3.44117,-0.34264 c 0.15928,-0.0183 0.29978,0.0939 0.32571,0.24897 l 0.56594,3.38799 c 0.10186,0.60828 0.47254,1.12263 1.01785,1.41129 0.54398,0.2884 1.17872,0.30665 1.73911,0.0484 l 3.13266,-1.44092 c 0.14288,-0.0656 0.3138,-0.009 0.38894,0.12938 l 1.64597,3.02498 c 0.29449,0.5416 0.8128,0.90673 1.4224,1.00145 0.10266,0.0161 0.20559,0.0241 0.30771,0.0241 0.50139,0 0.98187,-0.1913 1.35176,-0.54557 l 2.48444,-2.37834 c 0.11324,-0.10928 0.29369,-0.11086 0.40931,-0.004 l 2.55005,2.32965 c 0.45509,0.41619 1.06574,0.59188 1.67243,0.48287 0.60696,-0.10954 1.11655,-0.48683 1.39833,-1.03585 l 1.56659,-3.0517 c 0.072,-0.13996 0.24157,-0.20055 0.38656,-0.13838 l 3.17765,1.3769 c 0.56673,0.24553 1.20094,0.21325 1.7399,-0.0884 0.53869,-0.30189 0.89746,-0.82576 0.98425,-1.43668 l 0.48207,-3.39064 c 0.022,-0.15663 0.16563,-0.26934 0.32041,-0.25691 l 3.46101,0.2712 c 0.61648,0.0505 1.20624,-0.18838 1.61846,-0.65035 0.41169,-0.46143 0.5797,-1.07447 0.4617,-1.68116 l -0.65247,-3.35888 c -0.0302,-0.15558 0.0667,-0.30851 0.22014,-0.34767 l 3.36814,-0.86624 c 0.60008,-0.15426 1.08162,-0.57018 1.32133,-1.14168 0.23945,-0.57124 0.1995,-1.2065 -0.11086,-1.74308 l -1.71397,-2.96148 c -0.0796,-0.13758 -0.0381,-0.31379 0.095,-0.4011 l 2.90962,-1.9103 c 0.51885,-0.34078 0.84005,-0.89138 0.88159,-1.5105 0.0418,-0.61966 -0.2032,-1.20809 -0.67283,-1.61449 z m -1.12104,1.73434 -2.90963,1.9103 c -0.86968,0.57097 -1.143,1.72376 -0.62203,2.62466 l 1.71397,2.96148 c 0.0651,0.11219 0.0386,0.21511 0.0169,0.26644 -0.0214,0.0513 -0.0765,0.14208 -0.20187,0.17436 l -3.36815,0.86624 c -1.00409,0.25797 -1.63592,1.25783 -1.43828,2.27569 l 0.65247,3.35915 c 0.0249,0.127 -0.0336,0.2151 -0.0707,0.25664 -0.037,0.0413 -0.11536,0.11033 -0.24738,0.0992 l -3.46155,-0.2712 c -1.02076,-0.0749 -1.95103,0.65829 -2.09682,1.68117 l -0.48207,3.3909 c -0.018,0.12779 -0.10186,0.19235 -0.15028,0.21933 -0.0479,0.0275 -0.14605,0.0651 -0.26591,0.0135 l -3.17765,-1.37689 c -0.94615,-0.41037 -2.05581,-0.0127 -2.52729,0.90487 l -1.5666,3.05171 c -0.059,0.11483 -0.15928,0.14843 -0.21405,0.15848 -0.0524,0.01 -0.16007,0.0135 -0.25585,-0.0738 l -2.54953,-2.32965 c -0.75962,-0.69506 -1.93807,-0.68131 -2.68155,0.0312 l -2.48444,2.37807 c -0.0926,0.0889 -0.19764,0.0884 -0.25347,0.0796 -0.0548,-0.008 -0.15557,-0.0397 -0.21722,-0.15319 l -1.64597,-3.02498 c -0.35322,-0.64956 -1.02976,-1.02394 -1.72932,-1.02394 -0.27437,0 -0.55219,0.0574 -0.81571,0.17859 l -3.13267,1.44092 c -0.11853,0.0537 -0.21669,0.018 -0.2659,-0.007 -0.0487,-0.0259 -0.13441,-0.0886 -0.15558,-0.2159 l -0.56594,-3.38773 c -0.17013,-1.016 -1.1004,-1.73355 -2.13096,-1.6301 l -3.44117,0.34264 c -0.12859,0.0159 -0.21114,-0.0529 -0.24897,-0.0937 -0.0381,-0.0405 -0.0982,-0.12753 -0.0767,-0.25506 l 0.57124,-3.37953 c 0.17224,-1.01785 -0.47996,-2.00077 -1.48458,-2.23784 l -3.3745,-0.79666 c -0.12594,-0.0299 -0.18282,-0.11933 -0.20558,-0.17013 -0.0222,-0.0508 -0.0511,-0.15266 0.0109,-0.26591 l 1.6428,-3.00275 c 0.49688,-0.90805 0.19976,-2.05184 -0.67601,-2.60324 l -2.94005,-1.85208 c -0.10928,-0.0691 -0.13388,-0.17224 -0.13891,-0.22754 -0.005,-0.0553 0.002,-0.16113 0.0971,-0.24818 5.3e-4,0 5.3e-4,-2.7e-4 5.3e-4,-2.7e-4 l 2.53259,-2.30028 c 0.76862,-0.69824 0.8599,-1.87802 0.20797,-2.68632 l -2.1844,-2.70748 c -0.0815,-0.1008 -0.0712,-0.20637 -0.0577,-0.26035 0.0135,-0.0542 0.0537,-0.1524 0.17303,-0.20373 l 3.14564,-1.34831 c 0.95779,-0.41011 1.42848,-1.49834 1.07156,-2.47809 l -1.19407,-3.26972 c -0.0447,-0.12198 -5.3e-4,-0.21881 0.0302,-0.26564 0.0302,-0.0468 0.10027,-0.127 0.22992,-0.13653 l 3.41894,-0.25003 c 1.04273,-0.0765 1.84177,-0.95515 1.81954,-2.00025 l -0.0751,-3.47901 c -0.003,-0.13017 0.0701,-0.20743 0.11404,-0.24209 0.0434,-0.0344 0.13361,-0.0886 0.26273,-0.0542 l 3.32105,0.87604 c 1.01521,0.26802 2.05608,-0.30586 2.37252,-1.30519 l 1.0496,-3.31312 c 0.0394,-0.12435 0.13388,-0.17383 0.1868,-0.19235 0.0532,-0.0185 0.15716,-0.0389 0.2659,0.0336 l 2.86491,1.91109 c 0.87418,0.58261 2.04735,0.3765 2.66965,-0.46858 l 2.05687,-2.79188 c 0.0775,-0.10504 0.18309,-0.12171 0.23918,-0.12224 7.9e-4,0 0.002,0 0.003,0 0.0564,0 0.16007,0.0159 0.23786,0.118 l 2.09894,2.7432 c 0.63923,0.83503 1.8161,1.01997 2.67917,0.41963 l 2.84189,-1.97299 c 0.1061,-0.0741 0.21193,-0.0558 0.26511,-0.0384 0.0532,0.0177 0.1487,0.0659 0.1905,0.18918 l 1.10279,3.28321 c 0.33417,0.99695 1.38906,1.55099 2.39924,1.26286 l 3.31734,-0.94589 c 0.12621,-0.0362 0.21881,0.0159 0.263,0.0492 0.0447,0.0339 0.11933,0.11033 0.11906,0.2405 l -0.0153,3.47187 c -0.004,1.04933 0.81333,1.91426 1.86081,1.96876 l 3.43509,0.17912 c 0.13044,0.007 0.20214,0.0857 0.23336,0.13203 0.0312,0.0466 0.0773,0.14261 0.0344,0.26591 l -1.1356,3.28691 c -0.34184,0.98981 0.15108,2.07116 1.12237,2.46248 l 3.18346,1.28138 c 0.12065,0.0484 0.16325,0.14605 0.1778,0.20002 0.0145,0.054 0.0267,0.16008 -0.0529,0.26274 l -2.13731,2.74716 c -0.64161,0.82418 -0.52546,2.00528 0.26406,2.68896 l 2.58815,2.24367 c 0.0982,0.0849 0.10636,0.19077 0.10266,0.24659 -0.004,0.0556 -0.0262,0.15955 -0.1352,0.23098 z"
       class="st0"
       inkscape:connector-curvature="0"
       style="fill:#464646;stroke-width:0.26458332" />
  </g>
  <style
     id="style3958"
     type="text/css">
	.st0{fill:#464646;}
</style>
</svg>
