<?xml version="1.0" encoding="UTF-8" standalone="no"?>
<!-- Created with Inkscape (http://www.inkscape.org/) -->

<svg
   xmlns:dc="http://purl.org/dc/elements/1.1/"
   xmlns:cc="http://creativecommons.org/ns#"
   xmlns:rdf="http://www.w3.org/1999/02/22-rdf-syntax-ns#"
   xmlns:svg="http://www.w3.org/2000/svg"
   xmlns="http://www.w3.org/2000/svg"
   xmlns:sodipodi="http://sodipodi.sourceforge.net/DTD/sodipodi-0.dtd"
   xmlns:inkscape="http://www.inkscape.org/namespaces/inkscape"
   width="41.2355mm"
   height="41.236118mm"
   viewBox="0 0 41.2355 41.236119"
   version="1.1"
   id="svg8"
   sodipodi:docname="Venus.svg"
   inkscape:version="0.92.5 (2060ec1f9f, 2020-04-08)">
  <defs
     id="defs2">
	
	
	
	
	
	
	
	
	
	
	
	
	
	
	
	

	
	
	
	
	
	
	
	
	

	
	
	
	
	
	

	
	
	
	
	
	

	
	
	
	
	
	
	
	
	

	
	
	
	
	
	
	

	
	
	
	
	
	
	

	
	
	
	
	
	
	
	
	

	
	
	
	
	
	
	

	
	
	
	
	
	

	
	
	
	
	
	
</defs>
  <sodipodi:namedview
     id="base"
     pagecolor="#ffffff"
     bordercolor="#666666"
     borderopacity="1.0"
     inkscape:pageopacity="0.0"
     inkscape:pageshadow="2"
     inkscape:zoom="0.98994949"
     inkscape:cx="629.45001"
     inkscape:cy="-446.66832"
     inkscape:document-units="mm"
     inkscape:current-layer="layer1"
     showgrid="false"
     inkscape:window-width="3072"
     inkscape:window-height="1883"
     inkscape:window-x="0"
     inkscape:window-y="0"
     inkscape:window-maximized="1"
     fit-margin-top="0"
     fit-margin-left="0"
     fit-margin-right="0"
     fit-margin-bottom="0" />
  <metadata
     id="metadata5">
    <rdf:RDF>
      <cc:Work
         rdf:about="">
        <dc:format>image/svg+xml</dc:format>
        <dc:type
           rdf:resource="http://purl.org/dc/dcmitype/StillImage" />
        <dc:title></dc:title>
      </cc:Work>
    </rdf:RDF>
  </metadata>
  <g
     inkscape:label="Layer 1"
     inkscape:groupmode="layer"
     id="layer1"
     transform="translate(344.49875,343.78241)">
    <path
       id="path4014"
       d="m -303.26325,-323.16425 c 0,-3.14008 -0.70485,-6.11426 -1.96056,-8.77808 0,0 0,0 2.6e-4,0 -7.9e-4,-0.002 -0.002,-0.003 -0.002,-0.005 -0.12726,-0.26988 -0.2614,-0.53578 -0.39978,-0.79904 -0.0183,-0.0349 -0.0354,-0.0707 -0.054,-0.10531 -0.12965,-0.24315 -0.26564,-0.48207 -0.40455,-0.71914 -0.0299,-0.0511 -0.0582,-0.10318 -0.0886,-0.15372 -0.1434,-0.24024 -0.29342,-0.47598 -0.44635,-0.70988 -0.0262,-0.0397 -0.0508,-0.0807 -0.077,-0.12012 -3.69294,-5.56048 -10.00933,-9.22787 -17.18483,-9.22787 -5.23109,0 -10.00391,1.95183 -13.63901,5.16202 -0.002,0 -0.004,2.6e-4 -0.006,2.6e-4 -0.0241,0.0212 -0.0463,0.0439 -0.0701,0.0651 -0.18468,0.16457 -0.3646,0.33391 -0.54346,0.50509 -0.0741,0.0709 -0.14922,0.13997 -0.22225,0.21193 -0.17092,0.16881 -0.33681,0.34237 -0.50165,0.517 -0.0759,0.0802 -0.15372,0.15822 -0.22807,0.23945 -0.17065,0.18653 -0.33549,0.37835 -0.49927,0.57097 -0.0603,0.0709 -0.12329,0.13917 -0.18256,0.21061 -2.95169,3.56711 -4.72572,8.14387 -4.72572,13.13525 0,0.15054 0.008,0.29897 0.0114,0.44872 0.004,0.18442 0.005,0.36962 0.014,0.55299 0.009,0.19473 0.0265,0.38708 0.041,0.58022 0.0106,0.13892 0.0183,0.27835 0.0318,0.41646 0.0206,0.21326 0.0482,0.4244 0.0751,0.63552 0.0143,0.11298 0.0267,0.2265 0.0431,0.33894 0.0331,0.2286 0.0725,0.45481 0.11298,0.68104 0.0119,0.0661 0.0206,0.13362 0.0331,0.19975 v 0.004 c 0.001,2.6e-4 0.002,5.3e-4 0.003,0.001 0.47413,2.50269 1.39753,4.84557 2.6879,6.94002 -0.002,-5.3e-4 -0.003,-8e-4 -0.005,-0.001 0.0344,0.0558 0.0741,0.10795 0.10901,0.16351 0.19685,0.31274 0.4019,0.61913 0.61462,0.91996 0.0659,0.0931 0.13097,0.1868 0.19844,0.27887 0.25612,0.35005 0.5215,0.69295 0.79878,1.02606 0.0516,0.0616 0.10557,0.12091 0.15769,0.18203 0.24474,0.28707 0.49768,0.56674 0.75777,0.84005 0.0738,0.0775 0.14658,0.15584 0.22145,0.23231 0.30242,0.30823 0.61331,0.60748 0.93451,0.89614 0.0214,0.0193 0.0407,0.0405 0.0622,0.0595 0.002,0 0.004,0 0.006,-2.6e-4 3.64358,3.2467 8.44444,5.22261 13.70885,5.22261 5.52556,0 10.53915,-2.17779 14.24093,-5.71633 0.003,7.9e-4 0.006,0.003 0.01,0.003 0.0677,-0.0653 0.13123,-0.1352 0.19817,-0.20135 0.13044,-0.12832 0.2577,-0.25955 0.3847,-0.39105 0.10769,-0.11218 0.2167,-0.22331 0.322,-0.33761 0.19129,-0.20743 0.37703,-0.42016 0.55986,-0.63526 0.0471,-0.0556 0.0966,-0.10901 0.14314,-0.1651 0.23971,-0.2884 0.47201,-0.58288 0.69612,-0.88398 0.009,-0.0124 0.0175,-0.0251 0.0267,-0.0376 0.20928,-0.28284 0.41064,-0.5715 0.60537,-0.86518 0.013,-0.0198 0.0278,-0.0386 0.041,-0.0585 -8e-4,-5.3e-4 -0.002,-8e-4 -0.003,-0.001 2.14207,-3.25199 3.39249,-7.14348 3.39249,-11.32866 z m -35.10888,-12.51771 c 1.43881,-0.12117 2.81437,-0.0886 4.25979,0.23046 1.89601,0.41566 3.61315,0.0582 5.50492,-0.23284 1.77535,-0.27437 3.2557,0.29528 5.03105,0.008 0.83979,-0.13309 7.17656,-0.79825 6.71486,-2.17038 -0.1995,-0.59452 -1.50918,-0.34105 -1.96665,-0.32861 -0.86069,0.0333 -1.72958,0.0749 -2.59027,-0.0167 -0.93133,-0.0958 -1.86267,-0.31592 -2.81067,-0.34925 -2.99376,-0.10398 -3.97483,-0.56542 -6.98526,-0.66517 -1.17713,-0.0407 -2.47941,0.20611 -3.66871,0.36619 3.11626,-2.19366 6.90959,-3.48721 11.00163,-3.48721 5.98223,0 11.33132,2.75696 14.84816,7.06517 -0.0442,-7.9e-4 -0.0876,-0.005 -0.13203,-0.003 -1.95845,0.0831 -3.90843,0.61542 -5.8502,0.87313 -1.11416,0.14552 -2.23282,-0.16219 -3.34301,0.0167 -1.22661,0.19552 -2.34924,0.68183 -1.76292,1.02684 0.98954,0.57389 2.21192,0.18706 3.23903,-0.0582 1.05621,-0.25374 2.09153,0.0873 3.11017,0.32834 1.39304,0.33682 2.75247,0.15373 4.1537,0.29925 0.87418,0.09 1.72455,0.28046 2.5736,0.4699 0.82841,1.51897 1.45203,3.16388 1.84573,4.89505 -1.90976,-0.0627 -3.80814,0.25083 -5.69991,0.53499 -1.23482,0.18706 -2.48233,0.33258 -3.72957,0.27437 -1.20994,-0.0582 -2.37834,-0.36591 -3.53827,-0.68606 -1.68805,-0.46143 -3.5052,-0.4408 -5.18081,0.0624 -1.93331,0.57785 -4.03305,0.42413 -6.02482,0.34502 -1.58406,-0.0582 -3.13902,-0.29528 -4.71064,-0.39926 -1.40944,-0.0955 -2.7776,0.15796 -4.12459,0.55721 -1.13507,0.33259 -2.32013,0.59029 -3.50097,0.35746 -0.34422,-0.0688 -0.67839,-0.18045 -1.00727,-0.30877 0.63289,-3.40069 2.16615,-6.48785 4.34393,-9.00563 z m 30.37707,23.22354 c -0.15213,0.0188 -0.27808,0.0923 -0.42995,0.16193 -0.22039,0.0958 -0.44503,0.18282 -0.67363,0.2577 -0.499,0.16219 -1.04775,0.29951 -1.57585,0.31591 -0.74004,0.0249 -1.32636,0.10398 -2.01242,0.40746 -0.4408,0.18706 -0.8689,0.40323 -1.33059,0.54055 -0.2204,0.0664 -0.45324,0.12461 -0.68184,0.11218 -0.24103,-0.0167 -0.4572,-0.0998 -0.6985,-0.0291 -0.43232,0.12462 -0.81491,0.38259 -1.25571,0.47811 -1.25148,0.26617 -2.51962,0.28284 -3.63802,0.96467 -0.16219,0.0998 -0.33681,0.27437 -0.17462,0.4699 0.14949,0.17886 0.71517,0.12462 0.9271,0.14128 0.43233,0.0249 0.86492,0.0373 1.30148,0.0333 0.84402,-0.0124 1.69228,-0.0873 2.5281,-0.22463 1.4179,-0.23283 2.89374,-0.64029 4.2619,-0.20373 0.11827,0.0378 0.2339,0.0823 0.34846,0.13018 -3.39381,3.04456 -7.87453,4.90087 -12.78202,4.90087 -4.29312,0 -8.26108,-1.41896 -11.4591,-3.81291 0.4527,-0.0124 0.90488,-0.0394 1.35282,-0.10821 0.84825,-0.12885 1.45944,-0.70697 2.27859,-0.95621 1.65073,-0.50323 3.39698,-0.47413 5.08502,-0.78581 0.76517,-0.14129 1.47611,-0.41989 2.24102,-0.51144 0.48657,-0.0582 0.95223,0.0664 1.4388,0.11219 0.26617,0.0209 0.96044,0.0664 0.59452,-0.33682 -0.34105,-0.37412 -0.94377,-0.56541 -1.4179,-0.65696 -1.53855,-0.29104 -3.11441,-0.30348 -4.67359,-0.22463 -0.56119,0.0291 -1.13083,0.12462 -1.69228,0.12462 -0.60695,0.004 -1.2057,-0.16219 -1.78382,-0.33682 -0.68183,-0.20796 -1.39303,-0.43656 -2.1164,-0.40745 -0.42836,0.0209 -0.80672,0.17885 -1.22661,0.25373 -1.34885,0.22992 -2.71754,0.13653 -4.04548,-0.16087 -1.57109,-2.1283 -2.71066,-4.59184 -3.29406,-7.26175 0.33284,-0.0204 0.67125,-0.0654 0.98213,-0.0781 1.08929,-0.05 2.18281,-0.0749 3.27237,-0.05 1.48431,0.0333 2.93132,0.34502 4.40319,0.4199 1.24725,0.0664 2.49899,0.0831 3.74624,-0.0415 1.13083,-0.11219 2.3159,-0.39926 3.45095,-0.32015 1.18931,0.0831 2.295,0.20796 3.48854,0.0373 1.13082,-0.16219 2.18704,-0.47414 3.34274,-0.47811 1.39303,-0.004 2.09153,0.0415 3.46763,0.2204 1.05622,0.13309 2.12884,0.2204 3.19326,0.12462 0.95647,-0.0873 1.82959,-0.37015 2.79003,-0.41169 1.77932,-0.0788 3.57081,0.1696 5.27182,0.6948 -0.53075,2.35796 -1.49172,4.55374 -2.80432,6.49525 z"
       class="st0"
       inkscape:connector-curvature="0"
       style="fill:#464646;stroke-width:0.26458332" />
  </g>
  <style
     id="style3958"
     type="text/css">
	.st0{fill:#464646;}
</style>
</svg>
